<svg xmlns="http://www.w3.org/2000/svg" width="61.99" height="61.99" viewBox="0 0 61.99 61.99"><g fill="#fff"><path d="M45.46 45.46a3.1 3.1 0 1 0-5 2.44 5.2 5.2 0 0 0-3.27 4.8 6.2 6.2 0 0 0-4.02-5.8 4.13 4.13 0 1 0-4.35 0 6.2 6.2 0 0 0-4.02 5.8 5.2 5.2 0 0 0-3.27-4.8 3.1 3.1 0 1 0-3.8 0 5.2 5.2 0 0 0-3.27 4.8v3.1A5.2 5.2 0 0 0 11.2 51a3.1 3.1 0 1 0-3.79 0 5.2 5.2 0 0 0-3.27 4.8V62h53.73v-6.2a5.2 5.2 0 0 0-3.28-4.8 3.1 3.1 0 1 0-3.79 0 5.2 5.2 0 0 0-3.27 4.8v-3.1a5.2 5.2 0 0 0-3.27-4.8 3 3 0 0 0 1.21-2.44"/><path d="M17.56 41.9a4 4 0 0 1 2.07-.57 4.14 4.14 0 0 1 4.13 4.13 4 4 0 0 1-.6 2.14 6 6 0 0 1 1.55 1.53 7 7 0 0 1 2.3-2.46 5 5 0 0 1-1.18-3.28 5.17 5.17 0 1 1 10.33 0A5 5 0 0 1 35 46.67a7 7 0 0 1 2.3 2.46 6 6 0 0 1 1.55-1.53 4 4 0 0 1-.6-2.14 4.14 4.14 0 0 1 4.13-4.13 4 4 0 0 1 2.06.57V0H17.57Zm20.67-21.24h2.06v2.07h-2.06Zm0 4.14h2.06v2.06h-2.06Zm0 4.13h2.06V31h-2.06Zm0 4.13h2.06v2.07h-2.06ZM27.9 35.13h-2.07v-2.07h2.07Zm0-4.14h-2.07v-2.06h2.07Zm0-4.13h-2.07V24.8h2.07Zm0-4.13h-2.07v-2.07h2.07Zm0-4.13h-2.07v-2.07h2.07Zm4.13 16.53h-2.07v-2.07h2.07Zm0-4.14h-2.07v-2.06h2.07Zm0-4.13h-2.07V24.8h2.07Zm0-4.13h-2.07v-2.07h2.07Zm0-4.14h-2.07v-2.06h2.07Zm4.13 16.54H34.1v-2.07h2.06Zm0-4.14H34.1v-2.06h2.06Zm0-4.13H34.1V24.8h2.06Zm0-4.13H34.1v-2.07h2.06Zm0-4.14H34.1v-2.06h2.06ZM24.8 5.17h12.4v8.26H24.8Zm-3.1 15.5h2.06v2.06H21.7Zm0 4.13h2.06v2.06H21.7Zm0 4.13h2.06V31H21.7Zm0 4.13h2.06v2.07H21.7ZM45.46 42.75a4.1 4.1 0 0 1 .43 4.85 6.2 6.2 0 0 1 2.52 3.72 6 6 0 0 1 .76-.62 4 4 0 0 1-.61-2.14 4.13 4.13 0 1 1 8.27 0 4 4 0 0 1-.61 2.14 6.2 6.2 0 0 1 2.67 5.1V62H62V19.62H45.46Zm9.3-18.99h2.07V40.3h-2.07Zm-5.17 0h2.07V40.3h-2.07ZM3.1 55.8a6.2 6.2 0 0 1 2.67-5.1 4 4 0 0 1-.6-2.14 4.13 4.13 0 1 1 8.26 0 4 4 0 0 1-.6 2.14 6 6 0 0 1 .76.62 6.2 6.2 0 0 1 2.51-3.72 4.1 4.1 0 0 1 .43-4.84V19.63H0V62h3.1Zm7.23-32.04h2.07V40.3h-2.07Zm-5.16 0h2.06V40.3H5.17Z"/></g></svg>