<svg xmlns="http://www.w3.org/2000/svg" width="82.15" height="82.15" viewBox="0 0 82.15 82.15"><path fill="#2ca695" fill-rule="evenodd" d="M71.2 73.35a5.87 5.87 0 1 0 0-5.87h-9.59V44h9.6a5.87 5.87 0 1 0 0-5.86h-9.6V14.67h9.6a5.87 5.87 0 1 0 0-5.87H58.67a2.94 2.94 0 0 0-2.94 2.93v26.4h-9.58A6 6 0 0 0 44 36v-9.58a2.94 2.94 0 0 0-2.94-2.94 17.6 17.6 0 1 0 2.94 34.97v17.84h-5.87v-9.45a2.94 2.94 0 0 0-2.28-2.87 23 23 0 0 1-7.28-3.01 2.9 2.9 0 0 0-3.63.4l-6.7 6.7-4.14-4.15 6.68-6.7a2.9 2.9 0 0 0 .41-3.63 23 23 0 0 1-3.01-7.28A2.94 2.94 0 0 0 15.32 44H5.87v-5.86h9.45a2.94 2.94 0 0 0 2.87-2.29 23 23 0 0 1 3.01-7.27 2.9 2.9 0 0 0-.4-3.64l-6.7-6.69 4.16-4.15 6.69 6.7a2.9 2.9 0 0 0 3.64.4 23 23 0 0 1 7.27-3.02 2.94 2.94 0 0 0 2.28-2.86V5.86h5.87v11.75h5.87V2.94A2.94 2.94 0 0 0 46.94 0H35.21a2.94 2.94 0 0 0-2.94 2.93v10.15a29 29 0 0 0-4.76 1.98s-7.18-7.18-7.18-7.18a2.94 2.94 0 0 0-4.15 0l-8.3 8.3a2.94 2.94 0 0 0 0 4.15l7.18 7.18a29 29 0 0 0-1.98 4.76H2.93A2.94 2.94 0 0 0 0 35.21v11.73a2.94 2.94 0 0 0 2.93 2.94h10.15a29 29 0 0 0 1.98 4.77s-7.18 7.17-7.18 7.17a2.94 2.94 0 0 0 0 4.15l8.3 8.3a2.94 2.94 0 0 0 4.15 0l7.18-7.18a29 29 0 0 0 4.76 1.98v10.15a2.94 2.94 0 0 0 2.94 2.93h11.73a2.94 2.94 0 0 0 2.94-2.93v-24.7a2.93 2.93 0 0 0-4.11-2.69 11.74 11.74 0 1 1-7.63-22.12v6.28a5.87 5.87 0 1 0 8.02 8.02h9.59v26.4a2.94 2.94 0 0 0 2.93 2.94Z"/></svg>