<svg xmlns="http://www.w3.org/2000/svg" width="64.89" height="61.99" viewBox="0 0 64.89 61.99"><path fill="#fff" fill-rule="evenodd" d="M48.97 52.38a7.28 7.28 0 1 0-5.14-2.13 7.3 7.3 0 0 0 5.14 2.13m0-16.15a8.89 8.89 0 1 1-6.27 2.6 8.9 8.9 0 0 1 6.27-2.6M64.9 47.48l-2.82.35a.8.8 0 0 0-.67.59 13 13 0 0 1-1.3 3.13.8.8 0 0 0 .06.89l1.75 2.24-3.36 3.36-2.24-1.75a.8.8 0 0 0-.9-.06 13 13 0 0 1-3.13 1.3.8.8 0 0 0-.58.67l-.35 2.82h-4.76l-.35-2.82a.8.8 0 0 0-.58-.67 13 13 0 0 1-3.14-1.3.8.8 0 0 0-.89.06l-2.23 1.75-3.37-3.36 1.75-2.24a.8.8 0 0 0 .06-.9 13 13 0 0 1-1.3-3.13.8.8 0 0 0-.67-.58l-2.82-.35v-4.75l2.82-.35a.8.8 0 0 0 .67-.59 13 13 0 0 1 1.3-3.13.8.8 0 0 0-.06-.9l-1.75-2.23 3.36-3.37 2.24 1.75a.8.8 0 0 0 .9.06 13 13 0 0 1 3.13-1.3.8.8 0 0 0 .58-.67l.35-2.82h4.76l.34 2.82a.8.8 0 0 0 .6.67 13 13 0 0 1 3.12 1.3.8.8 0 0 0 .9-.06l2.24-1.74 3.36 3.35-1.75 2.24a.8.8 0 0 0-.06.9 13 13 0 0 1 1.3 3.13.8.8 0 0 0 .67.58l2.82.36ZM18.81 13.56a2.2 2.2 0 1 0 .65-1.55 2.2 2.2 0 0 0-.65 1.55m4.89 17.6a2.2 2.2 0 1 0 .64-1.54 2.2 2.2 0 0 0-.64 1.54M21 46.57a2.2 2.2 0 1 0 1.55.65 2.2 2.2 0 0 0-1.55-.65M27.45 62C14.8 57.9 7.86 49.66 4.12 39.9h12.85l.08.19L19 45.55a3.78 3.78 0 1 0 2-.57l-.5.03-1.95-5.46q-.46-1.24-1.47-1.24H3.55a55 55 0 0 1-1.75-6.35h20.39a3.79 3.79 0 1 0 0-1.6H1.47q-.6-3.16-.91-6.34h16.52q1.02 0 1.47-1.25l1.96-5.46.5.03a3.8 3.8 0 1 0-2-.57l-1.96 5.47-.08.18H.4c-.34-3.9-.44-7.8-.4-11.56A32.7 32.7 0 0 0 27.45 0a32.7 32.7 0 0 0 27.43 10.86 98 98 0 0 1-1.66 20.42l-.3-2.4a1.5 1.5 0 0 0-1.45-1.3h-4.99a1.5 1.5 0 0 0-1.46 1.3l-.3 2.4a14 14 0 0 0-2.52 1.05l-1.91-1.5a1.5 1.5 0 0 0-1.94.12l-3.53 3.53a1.5 1.5 0 0 0-.12 1.94l1.5 1.91a14 14 0 0 0-1.05 2.53l-2.4.3a1.5 1.5 0 0 0-1.3 1.45v4.98a1.5 1.5 0 0 0 1.3 1.46l2.4.3a14 14 0 0 0 1.05 2.53l-1.5 1.9a1.5 1.5 0 0 0 .13 1.95l1.92 1.92a40 40 0 0 1-9.3 4.34Z"/></svg>