<svg xmlns="http://www.w3.org/2000/svg" width="61.99" height="61.99" viewBox="0 0 61.99 61.99"><g fill="#fff"><path d="M28.7 10.33A10.33 10.33 0 1 1 18.37 0 10.33 10.33 0 0 1 28.7 10.33M34.78 31.36a16.1 16.1 0 0 0-14.12-8.4h-4.59A16.1 16.1 0 0 0 0 39.03v12.63a1.15 1.15 0 0 0 1.15 1.15h27.76a21 21 0 0 1-1.36-6.8 18.4 18.4 0 0 1 7.23-14.66Z"/><path d="m61.95 60.52-2.02-6.74a16.09 16.09 0 1 0-4.72 5.25l5.08 2.82a1.15 1.15 0 0 0 1.66-1.33Zm-4.37-6.56 1.35 4.51-3.26-1.81a1.2 1.2 0 0 0-1.26.1 13.6 13.6 0 0 1-8.49 2.94 13.82 13.82 0 1 1 11.78-6.66 1.2 1.2 0 0 0-.12.92"/><path d="M37.07 45.1a1.15 1.15 0 1 0 1.63 0 1.2 1.2 0 0 0-1.63 0M45.48 44.86a1 1 0 0 0-.38.25 1.16 1.16 0 0 0 0 1.63 1 1 0 0 0 .38.24 1 1 0 0 0 .44.09 1.2 1.2 0 0 0 .81-.33l.14-.19.1-.2.07-.2.02-.23a1.2 1.2 0 0 0-.33-.82 1.2 1.2 0 0 0-1.25-.24ZM53.14 45.1a1.2 1.2 0 0 0-.33.82 1 1 0 0 0 .09.44 1 1 0 0 0 .24.37 1.2 1.2 0 0 0 .82.34l.21-.03.22-.06.2-.1.19-.14a1 1 0 0 0 .24-.38 1 1 0 0 0 .09-.44 1.15 1.15 0 0 0-1.96-.81Z"/></g></svg>