<svg xmlns="http://www.w3.org/2000/svg" width="73.49" height="64.72" viewBox="0 0 73.49 64.72"><g fill="#fff"><path d="M45.8 9.06v2.7a3 3 0 0 0-.71-.07h-.24v-.71a.8.8 0 0 0-.2-.54l-2.98-3.32a.8.8 0 0 0-1.17-.04c-3.27 3.27-10.94 3.1-11.04 3.1a.8.8 0 0 0-.83.8v.71h-.23a3 3 0 0 0-.72.08V9.13a9 9 0 0 1 2.71-6.49A9 9 0 0 1 36.74 0h.04a9.07 9.07 0 0 1 9.02 9.05ZM28.63 13.3v3.66h-.23a1.82 1.82 0 0 1 0-3.65zM46.1 13.62a1.82 1.82 0 0 1-1.01 3.34h-.23V13.3h.23a2 2 0 0 1 1.01.31"/><path d="M43.24 12.5v5.09a6.5 6.5 0 0 1-13 0v-5.8c2.09-.04 7.53-.4 10.77-3l2.23 2.5ZM40.13 24.96v2.06l-3.39 4.2-3.38-4.2v-2.06a8.1 8.1 0 0 0 6.77 0ZM32.26 28.23 35.3 32H21.54a8 8 0 0 1 2.26-1.15ZM51.95 32H38.2l3.04-3.77 8.46 2.62A8 8 0 0 1 51.95 32M58.63 33.86a.8.8 0 0 1 .2.58l-1.8 23.95H16.46l-1.8-23.95a.77.77 0 0 1 .78-.83h42.63a.8.8 0 0 1 .57.25ZM48.13 46a.8.8 0 0 0-.3-.64l-5.38-4.14a.8.8 0 1 0-.98 1.27L46 46l-4.54 3.5a.8.8 0 0 0 .98 1.29l5.37-4.15a.8.8 0 0 0 .32-.64Zm-8.65-7.1a.8.8 0 1 0-1.56-.41l-3.91 14.6a.8.8 0 1 0 1.56.42Zm-7.46 3.6a.8.8 0 0 0-.98-1.28l-5.38 4.14a.8.8 0 0 0 0 1.28l5.38 4.14a.8.8 0 0 0 .98-1.28L27.48 46ZM73.49 64.6v.12H0v-.13a4.6 4.6 0 0 1 4.57-4.57h64.35a4.6 4.6 0 0 1 4.57 4.57"/></g></svg>