<svg xmlns="http://www.w3.org/2000/svg" width="143.72" height="148.63" viewBox="0 0 143.72 148.63"><defs><clipPath id="a"><path fill="none" d="M0 0h138.79v143.88H0z"/></clipPath><clipPath id="b"><path fill="none" d="M0 0h42.65v20.26H0z"/></clipPath></defs><g clip-path="url(#a)" transform="rotate(-2.01 138.36 2.42)"><g clip-path="url(#a)"><path fill="#aeadd6" d="M138.79 24.88v-.14l-.02-.09v-.02l-.01-.11-.02-.1v-.04l-.02-.07-.03-.1-.02-.05v-.02l-.01-.03-.08-.2-.04-.1-.05-.1-.02-.02v-.02l-.03-.05-.06-.1-.04-.06v-.01l-.01-.01-.06-.08-.05-.08-.03-.04-.01-.01-.02-.03-.07-.08-.07-.08-.01-.02-.08-.08-.07-.07-.05-.05-.02-.02-.13-.12q-.03 0-.04-.03h-.01l-.17-.14-.03-.02-.02-.02-.06-.04-.11-.07-.04-.02-.02-.01-.04-.03-.1-.06-.08-.04h-.02l-.01-.01-.12-.06-.12-.05-.12-.05-.12-.04h-.04l-.09-.04-.13-.03-.03-.01h-.01l-.08-.02-.13-.03-3.02-.52-3.25 2.8 3.21.43.13.03.25.07.05.02.2.08.2.08.02.01.18.1.03.01.16.1.03.02.16.11.08.06.1.08.1.1.06.05.06.06.1.1.02.02.13.14v.02l.13.15.01.02.1.16.02.02.1.16v.02l.09.17.01.02.07.17v.03l.07.17v.02l.1.5v.34l-.01.17-.53 9.38a19 19 0 0 0-2.13 3l-1.84 69.87c-.01.31-1.15 2.65-.85 2.4l3.02-3.36a4 4 0 0 0 1.06-2.35l4.42-81 .05-.79v-.2"/><path fill="#d3d3f0" d="M135.23 21.74 11.56.13l-.2-.04-.32-.05-.13-.02-.12-.01h-.13L10.53 0h-.13l-.14.01h-.02l-.12.02h-.06L10 .05l-.04.01q-.08 0-.14.03H9.8l-.16.04-.02.01-.08.03-.08.03-.03.01-.11.05q-.04 0-.07.03h-.01L9.03.4 9 .41 9 .43l-.26.19-3.2 2.67.26-.19.11-.06.3-.15.06-.03.24-.07.04-.02.26-.05h.01l.28-.04h.33l.3.01.13.02.1.02.68.12L132.5 24.5ZM10.43.64"/><path fill="#130832" d="M132.7 24.43 7.95 2.62a2.55 2.55 0 0 0-3.22 2.17L.92 72.52v.22L0 88.12c-.08 1.5 1.42 2.9 3.1 3.2l124.78 21.8a2.54 2.54 0 0 0 3.22-2.17l4.1-75.58v-.26l.42-7.44a3.4 3.4 0 0 0-2.91-3.24"/><path fill="#ccccf0" d="M123.31 32.1 10.66 9.6a2.25 2.25 0 0 0-2.91 1.87l-.52 8.5-.05.33-3.15 64.86c-.08 1.34 1.8 2 3.33 2.3l111.76 19.13c1.53.3 2.64-1.65 2.73-2.99l.32-7.6.05-.33 3.71-60.61a3.1 3.1 0 0 0-2.62-2.97"/><path fill="#7f63c7" d="m125.73 40.2.45-6.78a3 3 0 0 0-2.61-2.79L10.89 9.61c-1.53-.29-2.84.5-2.92 1.75l-.45 6.79Z"/><path fill="none" stroke="#fff" stroke-width="2.12" d="M120.73 34.48a1.67 1.67 0 0 1-2.06 1.7 2.6 2.6 0 0 1-2.12-2.43 1.67 1.67 0 0 1 2.05-1.7 2.6 2.6 0 0 1 2.13 2.43Z"/><path fill="#fff" d="M121.25 37.12a.4.4 0 0 1-.54-.03l-.67-.73a.4.4 0 0 1 0-.55.4.4 0 0 1 .54.03l.67.73a.4.4 0 0 1 0 .55M18.81 15.65a1.23 1.23 0 0 1-1.44 1.1 1.44 1.44 0 0 1-1.13-1.57 1.23 1.23 0 0 1 1.44-1.1 1.44 1.44 0 0 1 1.13 1.57M23.09 16.43a1.23 1.23 0 0 1-1.45 1.1 1.44 1.44 0 0 1-1.13-1.57 1.23 1.23 0 0 1 1.44-1.1 1.44 1.44 0 0 1 1.14 1.57M27.36 17.2a1.23 1.23 0 0 1-1.45 1.11 1.44 1.44 0 0 1-1.13-1.57 1.23 1.23 0 0 1 1.44-1.11 1.44 1.44 0 0 1 1.14 1.57M110.17 97.22 92.4 94.3a2.5 2.5 0 0 1-2.04-2.55l.8-19.53a1.88 1.88 0 0 1 2.23-1.85l17.77 2.93a2.5 2.5 0 0 1 2.04 2.54l-.81 19.54a1.88 1.88 0 0 1-2.22 1.84M83.27 92.73l-17.78-2.92a2.5 2.5 0 0 1-2.04-2.54l.81-19.54a1.88 1.88 0 0 1 2.22-1.84l17.77 2.92a2.5 2.5 0 0 1 2.05 2.54l-.81 19.54a1.88 1.88 0 0 1-2.23 1.84M56.69 88.34l-17.77-2.92a2.5 2.5 0 0 1-2.04-2.54l.81-19.54a1.88 1.88 0 0 1 2.22-1.84l17.77 2.92a2.5 2.5 0 0 1 2.04 2.55l-.8 19.53a1.9 1.9 0 0 1-2.23 1.84M30.6 83.97l-17.77-2.92a2.5 2.5 0 0 1-2.04-2.54l.81-19.54a1.88 1.88 0 0 1 2.22-1.84l17.77 2.92a2.5 2.5 0 0 1 2.04 2.54l-.8 19.54a1.9 1.9 0 0 1-2.22 1.84M111.63 69l-17.77-2.92a2.5 2.5 0 0 1-2.04-2.54L92.63 44a1.88 1.88 0 0 1 2.22-1.84l17.77 2.92a2.5 2.5 0 0 1 2.05 2.54l-.81 19.54a1.9 1.9 0 0 1-2.23 1.84M84.71 64.49l-17.77-2.92a2.5 2.5 0 0 1-2.04-2.54l.8-19.54a1.88 1.88 0 0 1 2.23-1.84l17.77 2.92a2.5 2.5 0 0 1 2.04 2.55l-.8 19.53a1.9 1.9 0 0 1-2.23 1.84M58.14 60.1l-17.77-2.92a2.5 2.5 0 0 1-2.04-2.55l.8-19.54a1.9 1.9 0 0 1 2.23-1.84l17.77 2.93a2.5 2.5 0 0 1 2.04 2.54l-.81 19.54a1.88 1.88 0 0 1-2.22 1.84M32.06 55.73 14.29 52.8a2.5 2.5 0 0 1-2.05-2.53l.81-19.54a1.88 1.88 0 0 1 2.22-1.85l17.77 2.93a2.5 2.5 0 0 1 2.05 2.54l-.81 19.54a1.88 1.88 0 0 1-2.22 1.84"/><path fill="#bfb5d6" d="M21.42 35.23a13 13 0 0 0 4.37.67l.68 2.28-3.18 1.36-1.39-1-.95-2.23Z"/><path fill="#d2c7eb" d="M29.62 51.11 17.67 49.3l.88-3.46a32 32 0 0 0 .12-4.26l-.2-4.79a18 18 0 0 0 2.95-1.56c-.02 2.98 4.35 3.65 4.37.67a21 21 0 0 1 3.15 2.49l-.13 3.78c-.08 2.07-.42 3.31-.08 5.41Z"/><path fill="none" stroke="#bfb5d6" stroke-linecap="round" stroke-linejoin="round" stroke-width="1.48" d="M20.67 36.08a4.2 4.2 0 0 0 3.17 2.6 2.3 2.3 0 0 0 2.6-1.95"/><path fill="#d2c7eb" d="m18.48 36.79-3.72 4.73a4.8 4.8 0 0 0 4.25 2.2l.04-5.33ZM28.94 38.39l3.63 5.86s-1.15 1.82-4.27.9l.04-5.33Z"/><path fill="none" stroke="#bfb5d6" stroke-linecap="round" stroke-linejoin="round" stroke-width="1.48" d="m28.71 45.05-.22-3.85.26-.37M18.76 43.53l.28-3.77-.25-.46"/><path fill="none" stroke="#aca3c2" stroke-linecap="round" stroke-linejoin="round" stroke-width="1.48" d="M21.72 35.8s2.4 1.12 3.72.5"/><path fill="#997ce6" d="m24.44 77.71-4.77-.8a1.3 1.3 0 0 1-1.05-1.28l.4-10.49a.95.95 0 0 1 1.14-.9l4.77.8a1.3 1.3 0 0 1 1.06 1.28l-.41 10.5a.95.95 0 0 1-1.14.9"/><path fill="#e6def7" d="m24.12 76.6-4.04-.7a1.1 1.1 0 0 1-.9-1.11l.34-9.07a.8.8 0 0 1 .96-.78l4.04.7a1.1 1.1 0 0 1 .89 1.11l-.34 9.07a.8.8 0 0 1-.95.78"/><path fill="none" stroke="#7b63b8" stroke-linecap="round" stroke-linejoin="round" stroke-width="1.18" d="m25.95 67.35-.05 1.33M25.88 69.17l-.05 1.33"/><path fill="#7b63b8" d="M22.66 65.17a.1.1 0 0 1-.14.11.15.15 0 0 1-.12-.15.1.1 0 0 1 .13-.1.15.15 0 0 1 .13.14"/><path fill="none" stroke="#7b63b8" stroke-linecap="round" stroke-linejoin="round" stroke-width="1.18" d="M19.19 74.79a1.1 1.1 0 0 0 .89 1.1l3.88.69M20.41 64.92l4.17.73"/><path fill="#c9bee0" d="m107.18 92.78-10.7-1.86.35-9.44 10.7 2.14Z"/><path fill="#c9bee0" d="m95.4 82.04 6.99-5.32 6.32 7.79Z"/><path fill="#a69bc2" d="m95.4 82.04 6.99-5.32 6.32 7.79-1.4-.26-5.06-6.25-5.4 4.3ZM103.6 92.16l-3.66-.64.21-5.85 3.67.64Z"/><path fill="#a69bc2" d="M102.93 83.07a.87.87 0 0 1-1.05.84 1.2 1.2 0 0 1-.97-1.18.87.87 0 0 1 1.04-.84 1.2 1.2 0 0 1 .98 1.19"/><path fill="none" stroke="#5b4399" stroke-linecap="round" stroke-linejoin="round" stroke-width="1.18" d="m96.85 82.2 5.4-4.2 4.97 6.23M100.8 88.09l-.04 1.07"/><path fill="#c9bee0" d="m43.27 52.79 6.58 1a1.3 1.3 0 0 0 1.34-.51c1.28-2 .82-3.25 2.63-4.02l.3 5.1.83.1.65-6.3a6.5 6.5 0 0 0-.84-5.86l-.46-.07s-1.23 7.08-6.7 7.6c0 0-4.74-.08-4.34 2.96"/><path fill="#ff85bb" d="m77.62 48.42-1.83-.28.1-2.2a1.23 1.23 0 0 1 1.45-1.2.5.5 0 0 1 .43.54Z"/><path fill="#ccccf0" d="m77.86 54.72-2.89-.45.26-5.7a1.05 1.05 0 0 1 1.23-1.02l.54.09a1.36 1.36 0 0 1 1.12 1.38Z"/><path fill="#886dc2" d="m78.4 58.94-4.34-.67.32-6.95a.84.84 0 0 1 .98-.8l2.46.37a1.1 1.1 0 0 1 .89 1.1Z"/><path fill="#5f4a94" d="m50.41 69.83-2.63-.4-.28.18a9 9 0 0 0-4.08 5.75 22 22 0 0 0-.09 7.3l8.12 1.26a25 25 0 0 0-1.04-14.09m-3.53 4.12-.73 3.82a.65.65 0 0 1-.83.53c-.38-.12-.67-.96-.67-.96a5.6 5.6 0 0 1 .85-3.8 1.5 1.5 0 0 1 .83-.53.84.84 0 0 1 .55.94"/><path fill="#c9bee0" d="m50.36 69.83-2.58-.4.05-2.09c.01-.37 2.6.04 2.58.4Z"/><path fill="#a69bc2" d="m97.72 54.07-.3 7.14c-.04 1 2.61 2.13 5.92 2.52s6.03-.1 6.08-1.1l.3-7.14Z"/><path fill="#c9bee0" d="M109.72 55.49c-.04 1-2.76 1.5-6.07 1.1s-5.97-1.52-5.93-2.52 2.94-2.2 6.25-1.8 5.79 2.22 5.75 3.22"/><path fill="#c9bee0" d="M104.97 52.05c-.08.8-.55 1.37-1.04 1.28s-.82-.81-.73-1.61.55-1.37 1.04-1.28.82.8.73 1.6"/><path fill="#a69bc2" d="M109.57 56.54c0-.02 1.95-.72 2.17.02s-2.87 2.13-2.87 2.05.7-2.07.7-2.07M97.77 54.44c0-.03-1.65-.8-1.86-.07s2.4 2.24 2.4 2.16-.54-2.1-.54-2.1"/><path fill="none" stroke="#fff" stroke-linecap="round" stroke-linejoin="round" stroke-width="1.03" d="M103.2 52.72s.08.46.8.55.76-.3.76-.3"/><path fill="#bc4894" d="M117.7 46.92a4.03 4.03 0 0 1-4.45 3.59 4.1 4.1 0 0 1-3.33-4.68 4.03 4.03 0 0 1 4.45-3.59 4.1 4.1 0 0 1 3.33 4.68M113.95 43.94l-.32 4.76"/><path fill="none" stroke="#fff" stroke-linecap="round" stroke-linejoin="round" stroke-width="2.44" d="m113.95 43.94-.32 4.76"/><path fill="#bc4894" d="m111.45 45.84 4.57.77"/><path fill="none" stroke="#fff" stroke-linecap="round" stroke-linejoin="round" stroke-width="2.44" d="m111.45 45.84 4.57.77"/><path fill="#bc4894" d="M36.31 35.6a4.03 4.03 0 0 1-4.45 3.58 4.1 4.1 0 0 1-3.33-4.68 4.03 4.03 0 0 1 4.45-3.59 4.1 4.1 0 0 1 3.33 4.68M32.56 32.62l-.32 4.76"/><path fill="none" stroke="#fff" stroke-linecap="round" stroke-linejoin="round" stroke-width="2.44" d="m32.56 32.62-.32 4.76"/><path fill="#bc4894" d="m30.07 34.51 4.57.78"/><path fill="none" stroke="#fff" stroke-linecap="round" stroke-linejoin="round" stroke-width="2.44" d="m30.07 34.51 4.57.78"/><path fill="#bc4894" d="M115.97 77.14a4.03 4.03 0 0 1-4.45 3.58 4.1 4.1 0 0 1-3.33-4.67 4.03 4.03 0 0 1 4.45-3.6 4.1 4.1 0 0 1 3.33 4.69M112.22 74.16l-.32 4.76"/><path fill="none" stroke="#fff" stroke-linecap="round" stroke-linejoin="round" stroke-width="2.44" d="m112.22 74.16-.32 4.76"/><path fill="#bc4894" d="m109.72 76.05 4.57.78"/><path fill="none" stroke="#fff" stroke-linecap="round" stroke-linejoin="round" stroke-width="2.44" d="m109.72 76.05 4.57.78"/><path fill="#bc4894" d="M35.6 64.4a4.03 4.03 0 0 1-4.45 3.58 4.1 4.1 0 0 1-3.34-4.68 4.03 4.03 0 0 1 4.45-3.59 4.1 4.1 0 0 1 3.33 4.68M31.85 61.42l-.32 4.75"/><path fill="none" stroke="#fff" stroke-linecap="round" stroke-linejoin="round" stroke-width="2.44" d="m31.85 61.42-.32 4.75"/><path fill="#bc4894" d="m29.35 63.3 4.57.79"/><path fill="none" stroke="#fff" stroke-linecap="round" stroke-linejoin="round" stroke-width="2.44" d="m29.35 63.3 4.57.79"/><path fill="#bc4894" d="M62.49 69.57a4.03 4.03 0 0 1-4.45 3.59 4.1 4.1 0 0 1-3.33-4.68 4.03 4.03 0 0 1 4.44-3.6 4.1 4.1 0 0 1 3.34 4.69M58.74 66.59l-.32 4.76"/><path fill="none" stroke="#fff" stroke-linecap="round" stroke-linejoin="round" stroke-width="2.44" d="m58.74 66.59-.32 4.76"/><path fill="#bc4894" d="m56.24 68.48 4.57.78"/><path fill="none" stroke="#fff" stroke-linecap="round" stroke-linejoin="round" stroke-width="2.44" d="m56.24 68.48 4.57.78"/><path fill="#ccccf0" d="M130.62 69.28c0 1.89-1 3.41-2.22 3.41s-2.21-1.52-2.21-3.4.99-3.42 2.21-3.42 2.22 1.53 2.22 3.41"/><g clip-path="url(#b)" opacity=".3" style="mix-blend-mode:multiply;isolation:isolate" transform="translate(39.41 120.56)"><path fill="#8288d4" d="M42.4 7.09 29.37 0 .59 12.2c-.84.31-.78.98.14 1.48l4.32 2.34.33.2 5.74 3.12c.92.5 3.06 1.16 3.9.84L40.7 9.22c.85-.31 2.63-1.64 1.7-2.14"/></g><path fill="#aeabd1" d="m40.42 120.3 13.35 8.14 27.29-10.61-16.28-8.8Z"/><path fill="#bc4894" d="M80.6 74.15a1.63 1.63 0 0 0-2.15-.94l-7.67 3.23a1.7 1.7 0 0 0-1.09 1.46l-.01 1.46L80.05 75a.8.8 0 0 0 .55-.85"/><path fill="none" stroke="#5b4399" stroke-linecap="round" stroke-linejoin="round" stroke-width="1.82" d="m80.94 94.54-10.68-5.36M70.65 87.97 81 93.24M78.02 125.72l-20.86 9.93M82.13 123.82l1.96-36.2-1.42.51-.47 6.22M71.05 84.7l.28-5.1-1.43.52-.46 6.21M81 119.05l-.24 3.79"/><path fill="#41306d" d="M56.31 140.31a3 3 0 0 1-1.6 3.32 1.92 1.92 0 0 1-2.84-1.16 3 3 0 0 1 1.6-3.32 1.92 1.92 0 0 1 2.84 1.16M82.84 128.48a2.54 2.54 0 0 1-1.63 3.04 2.2 2.2 0 0 1-2.9-1.47 2.54 2.54 0 0 1 1.63-3.04 2.2 2.2 0 0 1 2.9 1.47"/><path fill="#644aa8" d="m80.73 129.56-.15.04c-.54.15-1.17.02-1.16-.46l-.34-3.41a1.4 1.4 0 0 1 1-1.13l1.57-.43c.54-.15.97.12.95.6l-.78 3.73c-.01.47-.56.91-1.1 1.06"/><path fill="#bc4894" d="M92.97 81.47a1.63 1.63 0 0 0-2.14-.93l-7.68 3.22a1.7 1.7 0 0 0-1.08 1.47l-.02 1.46 10.38-4.36a.8.8 0 0 0 .54-.86"/><path fill="#644aa8" d="m54.5 141.91-.15.06c-.53.22-1.15.17-1.14-.31l-.38-3.4a1.6 1.6 0 0 1 .98-1.27l1.54-.63c.53-.22.96 0 .95.48l-.73 3.87c-.01.48-.55 1-1.08 1.2"/><path fill="none" stroke="#5b4399" stroke-linecap="round" stroke-linejoin="round" stroke-width="1.82" d="m49.22 127.38-4.22 1.8"/><path fill="#41306d" d="M44.4 133.46a3 3 0 0 1-1.61 3.32 1.92 1.92 0 0 1-2.84-1.17 3 3 0 0 1 1.6-3.32 1.92 1.92 0 0 1 2.84 1.17"/><path fill="#644aa8" d="m42.08 135.04-.14.06c-.53.21-1.15.16-1.14-.32l-.38-3.4a1.6 1.6 0 0 1 .98-1.26l1.54-.63c.53-.22.95 0 .94.47l-.73 3.88c0 .48-.54.99-1.07 1.2"/><path fill="#bc4894" d="m64.59 123.32 9.74-4.55-.82-20.3-3.06.5-2.67 1.45Z"/><path fill="#aa48bc" d="m63.86 123.1 5.39-2.12 1.94-21.83-2.76 1.3Z"/><path fill="#bc4894" d="m49.92 96.4.5-4.75 17.36 8.78-3.19 22.89-16.52-8.45 1.5-13.66Z"/><path fill="#aa48bc" d="m54.13 93.43.69-2.07.87-2.04 17.53 8.94-3.01.5-2.6 1.5Z"/><path fill="none" stroke="#fffcfa" stroke-linecap="round" stroke-linejoin="round" stroke-width="2.49" d="M55.7 96.44s-2.02 6.94 1.69 9.4 4.53-6.31 4.53-6.31"/><path fill="#58458a" d="m50.43 91.65 4.4-.24-.03 2.45Z"/><path fill="none" stroke="#5b4399" stroke-linecap="round" stroke-linejoin="round" stroke-width="1.82" d="m82.26 95.2-28.88 20.65.35 12.73L81 117.96ZM49.45 101.92l-9.24 6.34M53.69 118.6l28.2-17.94M40.18 111.43l13.22 7.62M40.34 114.66l13.16 7.58M40.39 117.82l13.21 7.62M42.74 110.04l.49 12.17M46.18 112.15l.5 12.17M49.9 114.32l.5 12.17M53.76 122.25l27.9-16M53.6 125.43l27.6-13.39M77.08 98.9l-1.03 20.8M71.73 102.74l-.95 19.03M65.56 107.14l-.85 17.17M59.97 111.13l-.49 15.11M43.65 110.17l5.32-3.52M65.7 93.85l3.2-2.12M62.04 92.23l6.39-4.85M69.3 88.83l-.26 5.5"/><path fill="none" stroke="#5b4399" stroke-linecap="round" stroke-linejoin="round" stroke-width="1.82" d="m53.73 128.57-13.24-8.04-.47-12.13 13.36 7.45ZM46.5 103.9l.02 6.2"/></g></g></svg>