<svg xmlns="http://www.w3.org/2000/svg" width="82.17" height="82.15" viewBox="0 0 82.17 82.15"><path fill="#2ca695" d="M27.39 79.41h27.39v2.74h-27.4ZM56.15 24.63A15.06 15.06 0 1 1 41.08 9.57a15.06 15.06 0 0 1 15.07 15.06"/><path fill="#2ca695" d="M41.08 69.69 60.4 34.9A22.4 22.4 0 0 0 63 24.63a21.91 21.91 0 0 0-43.82 0 22.4 22.4 0 0 0 2.6 10.27Zm0-62.86a17.8 17.8 0 1 1-17.8 17.8 17.77 17.77 0 0 1 17.8-17.8ZM73.95 43.8v4.39a4.07 4.07 0 1 0 2.74 0V43.8a4.04 4.04 0 0 0-4.1-4.1h-6.86v2.74h6.85a1.3 1.3 0 0 1 1.37 1.36m1.37 6.85a1.37 1.37 0 1 1-1.37 1.37 1.3 1.3 0 0 1 1.37-1.37ZM73.95 69.83a4 4 0 0 0-3.83 2.73H52.04a1.3 1.3 0 0 1-1.37-1.37v-2.73h-2.74v2.74a4.04 4.04 0 0 0 4.1 4.1h18.08a4.07 4.07 0 1 0 3.84-5.47m0 5.47a1.37 1.37 0 1 1 1.37-1.37 1.3 1.3 0 0 1-1.37 1.37M78.05 58.87a4 4 0 0 0-3.83 2.74H67.1a1.3 1.3 0 0 1-1.37-1.37v-4.1a4.04 4.04 0 0 0-4.11-4.12h-4.1v2.74h4.1a1.3 1.3 0 0 1 1.37 1.37v4.1a4.04 4.04 0 0 0 4.1 4.12h7.13a4.07 4.07 0 1 0 3.83-5.48m0 5.48a1.37 1.37 0 1 1 1.37-1.37 1.3 1.3 0 0 1-1.37 1.37M79.43 13.67V7.93a4 4 0 0 0 2.46-5.2A4.07 4.07 0 0 0 76.7.26a4.07 4.07 0 0 0 0 7.67v5.74a1.3 1.3 0 0 1-1.37 1.37h-6.85v2.74h6.85a4.04 4.04 0 0 0 4.1-4.1M78.06 2.72a1.37 1.37 0 1 1-1.37 1.37 1.3 1.3 0 0 1 1.37-1.37ZM79.43 29.02V26a4.04 4.04 0 0 0-4.11-4.1h-6.85v2.73h6.85A1.3 1.3 0 0 1 76.69 26v3.02a4.07 4.07 0 0 0 2.74 7.66 4.1 4.1 0 0 0 2.46-5.2 4 4 0 0 0-2.46-2.46m-1.37 5.2a1.37 1.37 0 1 1 1.37-1.37 1.3 1.3 0 0 1-1.37 1.37ZM9.59 41.07h6.84v-2.74H9.6a4.04 4.04 0 0 0-4.11 4.1v5.76a4.07 4.07 0 1 0 2.74 0v-5.75a1.3 1.3 0 0 1 1.37-1.37M6.85 53.39a1.37 1.37 0 1 1 1.37-1.37 1.3 1.3 0 0 1-1.37 1.37M34.24 71.2v-2.74H31.5v2.74a1.3 1.3 0 0 1-1.37 1.37H12.05a4 4 0 0 0-5.2-2.47 4.07 4.07 0 0 0-2.47 5.2 4.07 4.07 0 0 0 7.67 0h18.08a4.04 4.04 0 0 0 4.1-4.1M8.22 75.3a1.37 1.37 0 1 1 1.36-1.37 1.3 1.3 0 0 1-1.36 1.37M7.94 64.35h7.12a4.04 4.04 0 0 0 4.11-4.11v-4.1a1.3 1.3 0 0 1 1.37-1.38h4.1v-2.74h-4.1a4.04 4.04 0 0 0-4.1 4.11v4.1a1.3 1.3 0 0 1-1.38 1.38H7.94a4 4 0 0 0-5.2-2.47 4.07 4.07 0 0 0-2.46 5.2 4.07 4.07 0 0 0 7.67 0Zm-5.2-1.37a1.37 1.37 0 1 1 1.37 1.37 1.3 1.3 0 0 1-1.37-1.37ZM2.74 7.93v5.74a4.04 4.04 0 0 0 4.1 4.11h6.85v-2.73H6.85a1.3 1.3 0 0 1-1.37-1.38V7.93a3.96 3.96 0 0 0 2.46-5.2A4.07 4.07 0 0 0 2.74.26a3.96 3.96 0 0 0-2.46 5.2 4 4 0 0 0 2.46 2.47m1.37-5.2A1.37 1.37 0 1 1 2.74 4.1 1.3 1.3 0 0 1 4.1 2.72ZM4.1 35.59a4.04 4.04 0 0 0 4.11-4.1 4 4 0 0 0-2.73-3.84v-3.02a1.3 1.3 0 0 1 1.36-1.36h6.85v-2.75H6.85a4.04 4.04 0 0 0-4.11 4.11v3.02a4.1 4.1 0 0 0 1.37 7.94m0-5.48a1.37 1.37 0 1 1-1.36 1.37 1.3 1.3 0 0 1 1.37-1.37"/></svg>