<svg xmlns="http://www.w3.org/2000/svg" xmlns:xlink="http://www.w3.org/1999/xlink" width="134.94" height="158.4" viewBox="0 0 134.94 158.4"><defs><clipPath id="c"><path fill="none" d="M0 0h134.94v158.4H0z"/></clipPath><clipPath id="d"><path fill="none" d="M0 66.61A66.62 66.62 0 1 0 66.62 0 66.6 66.6 0 0 0 0 66.61"/></clipPath><clipPath id="f"><path fill="none" d="M0 0h131.97v132.21H0z"/></clipPath><clipPath id="g"><path fill="none" d="M0 0h134.51v134.48H0z"/></clipPath><clipPath id="h"><path fill="none" d="M134.5 67.18a67 67 0 0 1-12 38.41.2.2 0 0 0-.04.14 67.3 67.3 0 0 1-55.38 28.75 41 41 0 0 1-5.6-.4s0 .16-.02.16c-.9-.07-1.8-.08-2.69-.2q-.48-.03-.95-.07l-.84-.1-.72-.1-.16-.02-1.76-.31h-.01A67.5 67.5 0 0 1 0 74.49a58.6 58.6 0 0 0 44.02 38.02h.01a5 5 0 0 0 1.52.28l.14.03.62.1.73.1.82.1c.77.1 1.54.27 2.32.33l.02.08c1.59 0 3.17.12 4.78.12a58.2 58.2 0 0 0 47.78-25c0-.04.06-.1.09-.14a58.3 58.3 0 0 0 7.96-49.93l-.02-.03a40 40 0 0 0-2.17-6.07A58.4 58.4 0 0 0 73.35 0a67 67 0 0 1 36.12 14.69 68 68 0 0 1 19.77 26.03c.98 2.29 1.6 4.63 2.62 7.03l-.08.03a67 67 0 0 1 2.73 19.4"/></clipPath><clipPath id="j"><path fill="none" d="M10.83 0A10.83 10.83 0 0 0 0 10.83c0 4.89 7.22 16.48 9.87 20.57.45.7 2.3.83 2.75.13 2.65-4.09 9.04-15.82 9.04-20.7A10.83 10.83 0 0 0 10.83 0"/></clipPath><clipPath id="k"><path fill="none" d="M10.83 0A10.83 10.83 0 0 0 0 10.83c0 4.89 7.22 16.48 9.87 20.57a1.14 1.14 0 0 0 1.92 0c2.65-4.09 9.87-15.69 9.87-20.57A10.83 10.83 0 0 0 10.83 0"/></clipPath><clipPath id="l"><path fill="none" d="M0 0h11.93v11.93H0z"/></clipPath><clipPath id="m"><path fill="none" d="M0 0h11.22v11.22H0z"/></clipPath><clipPath id="n"><path fill="none" d="M0 0h49.61v4.52H0z"/></clipPath><clipPath id="o"><path fill="none" d="M0 0h49.59v1.41H0z"/></clipPath><clipPath id="p"><path fill="none" d="M0 10.83c0 4.88 7.22 16.48 9.87 20.57.45.7 2.3.83 2.75.13 2.65-4.09 9.04-15.81 9.04-20.7a10.83 10.83 0 1 0-21.66 0"/></clipPath><clipPath id="r"><path fill="none" d="M0 10.83c0 4.88 7.22 16.48 9.87 20.57a1.14 1.14 0 0 0 1.92 0c2.65-4.08 9.87-15.68 9.87-20.57a10.83 10.83 0 1 0-21.66 0"/></clipPath><clipPath id="t"><path fill="none" d="M0 0h11.22v11.22H0z"/></clipPath><clipPath id="u"><path fill="none" d="M0 10.83c0 4.88 7.22 16.48 9.87 20.57.45.7 2.3.83 2.76.13 2.64-4.09 9.03-15.82 9.03-20.7a10.83 10.83 0 0 0-21.66 0"/></clipPath><clipPath id="w"><path fill="none" d="M0 10.83c0 4.88 7.22 16.48 9.87 20.57a1.14 1.14 0 0 0 1.92 0c2.65-4.08 9.87-15.68 9.87-20.57a10.83 10.83 0 1 0-21.66 0"/></clipPath><clipPath id="y"><path fill="none" d="M0 0h5.78v5.75H0z"/></clipPath><linearGradient id="e" x1="-.01" x2="0" y1="1.05" y2="1.05" gradientUnits="objectBoundingBox"><stop offset="0" stop-color="#aa80f9"/><stop offset="1" stop-color="#6165d7"/></linearGradient><linearGradient id="i" x1="0" x2="0" y1="1.04" y2="1.04" gradientUnits="objectBoundingBox"><stop offset="0" stop-color="#aa80f9"/><stop offset="1" stop-color="#6165d7"/><stop offset="1" stop-color="#6165d7"/></linearGradient><linearGradient id="a" x1="-2.46" x2="-2.44" y1="6.17" y2="6.17" gradientUnits="objectBoundingBox"><stop offset="0" stop-color="#893976"/><stop offset="1" stop-color="#311944"/></linearGradient><linearGradient id="b" x1="-2.19" x2="-2.17" y1="4.76" y2="4.76" gradientUnits="objectBoundingBox"><stop offset="0" stop-color="#ff9085"/><stop offset="1" stop-color="#fb6fbb"/></linearGradient><linearGradient xlink:href="#a" id="q" x1=".15" x2=".17" y1="5.15" y2="5.15"/><linearGradient xlink:href="#b" id="s" x1=".15" x2=".17" y1="3.99" y2="3.99"/><linearGradient xlink:href="#a" id="v" x1="-1" x2="-.98" y1="3.06" y2="3.06"/><linearGradient xlink:href="#b" id="x" x1="-.88" x2="-.86" y1="2.43" y2="2.43"/></defs><g clip-path="url(#c)"><g clip-path="url(#d)" transform="translate(.85 18.5)"><path fill="url(#e)" d="M0 0h133.24v133.24H0z"/></g><g clip-path="url(#d)" transform="translate(.85 18.5)"><g fill="#fff" clip-path="url(#f)" style="mix-blend-mode:soft-light;isolation:isolate" transform="translate(2.12 1.7)"><path d="M79.2 87.71c-1.45 2.04-5.93 4.66-2.89 9.8 3.02 5.13-.2 6.1-2.28 5.62s-8.56-.74-7.48 2.2 2.93 4.05.56 5.18-3.37 4.1-5.8 8.16c-2.4 4.08-8.13.55-6.44 4.64s3.02 3.7 2.86 6.54a3.6 3.6 0 0 0 1.18 2.35 71 71 0 0 1-4.5-.52l-.72-.11-.1-.03c-.58-.1-.88-.2-1.64-.31-.5-.48-.19-1-.11-1.57.75-5.26-6.5-8.87-7.72-12.56-1.2-3.68-.01-5.87-.29-8.91s.71-7.08-1.04-9.64-8.8-3.4-10.15-8.56 1.8-12.85 3.02-14.16-5.84-7.27-9.2-7.46c-3.37-.2-2.02-7-7.72-5.96-5.71 1-15.96-2.18-13.85-5.6C6.65 53.98 9.58 47.75 0 44.98c.3-1 .69-1.97.94-2.94.76-1.62 1.27-3.2 1.97-4.76q.44-.93.9-1.85a68 68 0 0 1 5.72-9.6l.6-.82q1.2-1.63 2.5-3.19 1.94-2.33 4.08-4.48a68 68 0 0 1 12.37-9.8c1.9 1.33 4.06 2.15 5.93 1.14 4.6-2.57 1.57-2.97-.31-3.06a2.4 2.4 0 0 1-1.35-.52A67 67 0 0 1 44.45.54c-.28 2.59-3.8 6.75-1.21 6.24 3.01-.57 4.24-8.72 6.46-6.01 2.24 2.72-2.46 6.28 1.95 4.21 4.43-2.04 5.02-6.6 9.94-4.38 4.95 2.25 4.5 4.9 5.89 4.64s5.82 2.73 3.12 5.2c-2.71 2.46-5.2-.68-9.28-1.63s-3.98 2.4-5.85 3.15c-1.91.74-11.1-3.7-13.37.31-2.28 3.99-3.25 6.77.14 6.67s3.6-.97 3.33 1.53.35 4.38 3.42 2.02 2.37-4.64 4.76-3.52 2.67.1 5.22-1.74 5.89-2.04 6.76 2.1-.62 5.08-5.1 5.29-4.97-1.2-6.4 2.54-7.33 8.55-12.52 10.53-7.22 4.92-7.1 8.87-1.83 8.14-3.13 4.87-4.97-8.78-8.71-5.1S12.5 56.55 19.7 57.75c7.19 1.21 3.44-5.53 7.07-4.18s-2.3 4.33.13 5.4 3.45.58 3.43 3.89.8 6.52 3.75 5.12 6.73-6.36 11-2.52 3.97 1.82 6.2.7 3.67 2.23 4.59 3.76 4.51-.04 7.43 4.51 4.05 5.36 7.38 3.72 4.67-.42 5.54 1.88 2.91.05 3.9 3.08.51 2.56-.93 4.6M90.58 32.63c-2.36-5.05 9.31-4.48 11.37-4.1 2.08.35 6.94-3.46 7.56-5.22.64-1.78 1.68-.94 5.37-.99s.43-.87-3.63-2.21-.59-1.47-4.33-4.42c-1.6-1.3-1.1-2.4-.03-3.21a68 68 0 0 1 19.7 26.03 1 1 0 0 0-.35-.06c-2.59-.01-3.16-5.73-4.49-6.84-1.31-1.11.04 3.14.36 4.88s-.7.28-2 1.89-3.63 1.63-3.84-.78-1.91-4.76-5.35-5.86-6.42-.2-9.2.88c-2.79 1.06-8.78 5.03-11.15.01"/><path d="M119.87 103.52c.24-1.74.62-3.53-.1-4.18-1.77-1.64-2.15-6.1-1.54-8.35s5.35-2.13 2.13-5.89-6.14-8.24-4.78-10.8.94-2.74-1.6-2.72-3.66.13-6.2-2.14c-2.54-2.3-6.03 5.41-15.57-.77-9.55-6.24-4.11-16.76-.53-16.79 3.6-.06 7.8-1.87 4.85-6.26-2.94-4.4 1.66-5.03 3.9-4.03s6.24-1.67 10.3-2.87 3.9 5.44 6.16 6.77 6.53.28 8.75-1.85c1.58-1.51 1.93.25 3.49 1.93a67.6 67.6 0 0 1-9.26 57.95M102.8 24.22s2.97-1.34 1.9-3.5-2.76-8.8-4-6.71.59 6.17.19 7.93-.42 2.69 1.9 2.28M99.83 22.2c-.04-.7.4-3.53-1.83-3.44 0 0-3.22 1.34-1.34 3.63s3.22.5 3.17-.2"/></g><g clip-path="url(#g)" opacity=".3" style="mix-blend-mode:multiply;isolation:isolate" transform="translate(-.64 -.62)"><g clip-path="url(#h)"><path fill="url(#i)" d="M0 0h134.51v134.48H0z"/></g></g></g><g clip-path="url(#j)" transform="translate(91.05)"><path fill="url(#a)" d="M0 0h34.42v25.09H0z" transform="rotate(-83.68 16 17.9)"/></g><g clip-path="url(#k)" transform="translate(92.22)"><path fill="url(#b)" d="M0 0h38.31v33.42H0z" transform="rotate(-64.35 14.47 23)"/></g><g clip-path="url(#c)"><g clip-path="url(#l)" opacity=".7" transform="translate(97.09 3.87)"><path fill="#fff" d="M11.93 5.97A5.97 5.97 0 1 1 5.97 0a5.97 5.97 0 0 1 5.96 5.97"/></g><g clip-path="url(#m)" opacity=".7" transform="translate(97.44 4.22)"><path fill="#fff" d="M11.22 5.61A5.61 5.61 0 1 1 5.61 0a5.6 5.6 0 0 1 5.61 5.61"/></g><path fill="#8bd2fa" d="m15.15 60.17-13.81-.05a.75.75 0 0 0-.76.75L.51 86.93a.75.75 0 0 0 .76.76l13.8.04a.75.75 0 0 0 .76-.75l.07-26.06a.75.75 0 0 0-.75-.76"/><path fill="#6768bf" d="M9.25 87.2H7.17a.2.2 0 1 1 0-.4h2.08a.2.2 0 0 1 0 .4"/><path fill="#fff" d="m2.06 85.9.06-23.98a.26.26 0 0 1 .26-.25l11.72.03a.26.26 0 0 1 .25.26l-.06 23.97a.26.26 0 0 1-.26.25l-11.72-.03a.26.26 0 0 1-.26-.26"/><path fill="#48bcaa" d="M13.15 62.02h-9.9a.8.8 0 0 0-.8.79v22.2a.8.8 0 0 0 .8.8h9.9a.8.8 0 0 0 .8-.8v-22.2a.8.8 0 0 0-.8-.8"/><path fill="#393bb2" d="M79.14 114.34H28.17a1.5 1.5 0 0 0-1.49 1.49v34.57a1.5 1.5 0 0 0 1.5 1.5h50.96a1.5 1.5 0 0 0 1.49-1.5v-34.57a1.5 1.5 0 0 0-1.5-1.5"/><path fill="none" stroke="#1a145b" stroke-width="8.1" d="M28.89 114.34h49.53a2.2 2.2 0 0 1 2.2 2.2v33.14a2.2 2.2 0 0 1-2.2 2.21H28.9a2.2 2.2 0 0 1-2.21-2.2v-33.15a2.2 2.2 0 0 1 2.2-2.2Z"/><path fill="#fff" d="M29.66 148.72v-30.44a.6.6 0 0 1 .58-.58h46.83a.6.6 0 0 1 .58.58v30.44a.6.6 0 0 1-.58.58H30.24a.6.6 0 0 1-.58-.58"/><path fill="#1a135a" d="m75.1 156.8.72 1.6H31.49l.73-1.6a1.5 1.5 0 0 1 1.37-.88h40.13a1.5 1.5 0 0 1 1.37.88"/><g clip-path="url(#n)" opacity=".2" style="mix-blend-mode:multiply;isolation:isolate" transform="translate(28.85 118.51)"><path fill="#1a135a" d="M48.13 4.5h.03l.12-.03A1.8 1.8 0 0 0 49.6 3.1L48.73 0H.88L0 3.1v.02a2 2 0 0 0 .5.9l.1.1h.01l.11.09.02.01.1.07.03.01.1.06.05.02q.04 0 .1.04l.05.01.09.03.07.02.08.02h.1l.05.02h.16a1.8 1.8 0 0 0 1.65-1.15l.01.04.06.13v.01l.07.12v.01l.08.11v.01l.1.11a2 2 0 0 0 .32.3h.01l.1.07.04.02.09.05.04.02.09.04.05.02.08.02.06.02.08.02.06.01.1.01h.05l.14.01a1.8 1.8 0 0 0 1.65-1.14l.01.02.02.04.04.1.02.03.05.1.02.03.06.08.02.04.07.08.02.03.08.08.02.02.21.18.04.03.08.05q.03.02.05.02l.08.04.05.03.07.03.07.02.07.02.07.02.07.02.07.01.08.01.06.01h.15a1.8 1.8 0 0 0 1.65-1.14v.02l.02.04.04.1.02.03.05.09.03.04.05.08.03.04.06.08.02.03.08.08.02.02.22.18.04.03.08.04.05.03.07.04.06.03.07.03.07.02.07.02.06.02.08.02.07.01.08.01.06.01h.14a1.8 1.8 0 0 0 1.66-1.14l.05.12.05.1.01.03.06.09.02.03.05.08.03.03.06.08.02.02.26.23.02.01.08.06.03.02.08.04.05.03.08.03.05.02.08.03.05.02.08.02.06.02.08.01.08.01.07.01h.14a1.8 1.8 0 0 0 1.65-1.14v.01l.03.07.03.06.03.07.03.06.04.06.04.05.04.06.04.06.05.05.04.05.05.05.04.04.14.1.03.04.07.04.05.03.07.04.05.03.08.03.05.02.08.03.06.02.07.02.07.02.07.01.08.01.07.01h.15a1.8 1.8 0 0 0 1.64-1.14 1.8 1.8 0 0 0 .85.95l.02.01.1.05.03.01.1.03.04.02.09.02.05.02.09.01.06.01.08.01h.15a1.8 1.8 0 0 0 1.64-1.14l.05.1v.03l.06.1.01.03.06.09.02.02.05.09.02.02.07.08.01.02a2 2 0 0 0 .38.31l.02.01.1.05.02.02.1.04.03.02.09.03.05.01.08.03.06.01.08.02h.07l.07.01.13.01h.02a1.8 1.8 0 0 0 1.65-1.15 1.8 1.8 0 0 0 .86.96l.1.05.03.01.1.04h.03l.1.03.04.01.1.02.05.01.09.01h.14a1.8 1.8 0 0 0 1.65-1.15 2 2 0 0 0 .18.36 2 2 0 0 0 .67.6h.01l.1.05.03.01.1.04h.04l.1.03.04.02.1.01.06.01.07.01h.15a1.8 1.8 0 0 0 1.65-1.15 1.8 1.8 0 0 0 1.1 1.06h.01l.12.04h.03l.1.02h.05l.1.02h.14a1.8 1.8 0 0 0 1.65-1.15 1.8 1.8 0 0 0 .97 1.01l.02.01.1.04h.03l.1.04h.04l.1.03h.06l.08.01h.15a1.8 1.8 0 0 0 1.65-1.14 1.8 1.8 0 0 0 1.1 1.06l.13.03h.02l.11.02h.04l.1.02h.15a1.8 1.8 0 0 0 1.64-1.15 1.8 1.8 0 0 0 .98 1.01l.12.05h.02l.1.03.04.01.1.02h.05l.09.02h.17a1.8 1.8 0 0 0 1.64-1.15 1.8 1.8 0 0 0 1.24 1.1l.13.03h.03l.1.01h.3l.1-.01"/></g><path fill="#fa6982" d="m78.45 120.82-.87-3.1H29.73l-.88 3.1a1.76 1.76 0 0 0 3.38.28l.07-.28h3.15l.07.28a1.76 1.76 0 0 0 3.3 0l.08-.27h3.14l.07.26a1.76 1.76 0 0 0 3.38-.27h3.14l.07.27a1.76 1.76 0 0 0 3.38-.27h3.15l.07.28a1.76 1.76 0 0 0 3.3 0l.08-.27h3.15l.07.27a1.76 1.76 0 0 0 3.37-.27h3.15l.08.27a1.76 1.76 0 0 0 3.37-.27H75l.08.27a1.76 1.76 0 0 0 3.37-.27Z"/><path fill="#dedffc" d="M35.6 117.74h-3.46v2.9a1 1 0 0 0 .08.45 1.76 1.76 0 0 0 3.3 0 1 1 0 0 0 .08-.45ZM42.19 117.74h-3.45v2.9a1 1 0 0 0 .08.45 1.76 1.76 0 0 0 3.3 0 1 1 0 0 0 .07-.45ZM48.78 117.74h-3.45v2.9a1 1 0 0 0 .08.45 1.76 1.76 0 0 0 3.3 0 1 1 0 0 0 .08-.45ZM55.38 117.74h-3.45v2.9a1 1 0 0 0 .07.45 1.76 1.76 0 0 0 3.3 0 1 1 0 0 0 .08-.45ZM61.97 117.74h-3.45v2.9a1 1 0 0 0 .08.45 1.76 1.76 0 0 0 3.3 0 1 1 0 0 0 .07-.45ZM68.57 117.74h-3.45v2.9a1 1 0 0 0 .07.45 1.76 1.76 0 0 0 3.3 0 1 1 0 0 0 .08-.45ZM75.16 117.74H71.7v2.9a1 1 0 0 0 .07.45 1.76 1.76 0 0 0 3.3 0 1 1 0 0 0 .08-.45Z"/><g clip-path="url(#o)" opacity=".4" style="mix-blend-mode:multiply;isolation:isolate" transform="translate(28.86 120.84)"><path fill="#595ff1" d="M46.3 0H0a1.76 1.76 0 0 0 3.37.26 1.76 1.76 0 0 0 3.3 0 1.76 1.76 0 0 0 3.3 0 1.76 1.76 0 0 0 3.3 0 1.76 1.76 0 0 0 3.29 0 1.76 1.76 0 0 0 3.3 0 1.76 1.76 0 0 0 3.3 0 1.76 1.76 0 0 0 3.3 0 1.76 1.76 0 0 0 3.3 0 1.76 1.76 0 0 0 3.3 0 1.76 1.76 0 0 0 3.3 0 1.76 1.76 0 0 0 3.3 0 1.76 1.76 0 0 0 3.3 0 1.76 1.76 0 0 0 3.3 0 1.76 1.76 0 0 0 3.3 0l.06-.26Z"/></g><path fill="#1a135a" d="M49.84 156.2h5.86l1.21-4.14h-8.29Z"/><path fill="#48bcaa" d="M52.07 124.8H33.53a1 1 0 0 0-.99.99v18.54a1 1 0 0 0 .99.99h18.54a1 1 0 0 0 .98-.99V125.8a1 1 0 0 0-.98-.98"/><path fill="#dedffc" d="M63.42 124.8h-8.7a.46.46 0 0 0-.46.47v8.7a.46.46 0 0 0 .46.46h8.7a.46.46 0 0 0 .47-.46v-8.7a.46.46 0 0 0-.47-.46M74.3 124.8h-8.7a.46.46 0 0 0-.46.47v8.7a.46.46 0 0 0 .46.46h8.7a.46.46 0 0 0 .47-.46v-8.7a.46.46 0 0 0-.47-.46M63.42 135.43h-8.7a.46.46 0 0 0-.46.46v8.7a.46.46 0 0 0 .46.46h8.7a.46.46 0 0 0 .47-.46v-8.7a.46.46 0 0 0-.47-.47"/><path fill="#6768bf" d="M56.77 137.2h4.6v5.98h-4.6z"/><path fill="#1a135a" d="m62.64 139.7-1.25-.57v-1.94l1.93.9ZM55.51 139.7l1.26-.57v-1.94l-1.94.9Z"/><path fill="#fff" d="M60.67 137.2a1.6 1.6 0 1 1-3.19 0Z"/><path fill="#1a135a" d="M60.3 137.2a1.23 1.23 0 1 1-2.46 0Z"/><path fill="#fff" d="M56.77 142.1h4.6v.42h-4.6zM56.77 141.1h4.6v.42h-4.6z"/><path fill="#dedffc" d="M74.3 135.43h-8.7a.46.46 0 0 0-.46.46v8.7a.46.46 0 0 0 .46.46h8.7a.46.46 0 0 0 .47-.46v-8.7a.46.46 0 0 0-.47-.47"/><path fill="#48bcaa" d="M55.49 127.06h4.28V131h-4.28z"/><path fill="#fff" d="M57.37 127.06H58V131h-.62z"/><path fill="#fff" d="M55.49 128.64h4.28v.66h-4.28z"/><path fill="#fa6982" d="M62.66 128.72v2.27h-2.9v-3.39h1.65l.08.07Z"/><path fill="#1a135a" d="M62.66 128.72v.3h-1.28v-1.35h.1Z"/><path fill="#6768bf" d="M55.7 131.15a1.03 1.03 0 1 0 1.03-1.03 1.03 1.03 0 0 0-1.03 1.03"/><path fill="#1a135a" d="M56.32 131.15a.41.41 0 1 0 .4-.41.4.4 0 0 0-.4.4"/><path fill="#6768bf" d="M60.44 131.15a1.03 1.03 0 1 0 1.03-1.03 1.03 1.03 0 0 0-1.03 1.03"/><path fill="#1a135a" d="M61.05 131.15a.41.41 0 1 0 .41-.41.4.4 0 0 0-.4.4"/><path fill="#fff" d="M48.15 139.3H36.92a.5.5 0 0 1-.45-.35l-2.02-7.77a.46.46 0 0 1 .45-.58h13.25a.46.46 0 0 1 .46.46v7.77a.46.46 0 0 1-.46.46m-10.88-.92H47.7v-6.85H35.5Z"/><path fill="#fff" d="m37.6 131.12.6-.11 1.45 7.76-.6.11zM44.67 131.06h.6v7.77h-.6zM41.23 131.08l.61-.03.41 7.77-.6.03z"/><path fill="#fff" d="M36.42 135.88h11.73v.61H36.42zM35.58 133.4h12.57v.6H35.58z"/><path fill="#fff" d="M45.45 141.87h-6.63v-.92h6.63a2.25 2.25 0 0 0 2.24-2.24v-10.03a1.8 1.8 0 0 1 1.78-1.78h2.15v.92h-2.15a.86.86 0 0 0-.86.86v10.02a3.17 3.17 0 0 1-3.17 3.17"/><path fill="#6768bf" d="M35.67 142.19a1.81 1.81 0 1 0 1.81-1.81 1.8 1.8 0 0 0-1.8 1.8"/><path fill="#fff" d="M36.69 142.19a.8.8 0 1 0 .8-.8.8.8 0 0 0-.8.8"/><path fill="#6768bf" d="M43.27 142.19a1.81 1.81 0 1 0 1.81-1.81 1.8 1.8 0 0 0-1.8 1.8"/><path fill="#fff" d="M44.3 142.19a.8.8 0 1 0 .78-.8.8.8 0 0 0-.79.8M68.71 128.79a1.3 1.3 0 1 1 1.3-1.3 1.3 1.3 0 0 1-1.3 1.3m0-2.03a.74.74 0 1 0 .74.73.74.74 0 0 0-.74-.73"/><path fill="#fff" d="M71 128.79a1.3 1.3 0 1 1 1.3-1.3 1.3 1.3 0 0 1-1.3 1.3m0-2.03a.74.74 0 1 0 .74.73.74.74 0 0 0-.74-.73"/><path fill="#fa6982" d="M67.06 128.05h5.6v4.8h-5.6z"/><path fill="#6d0000" d="M67.06 127.5h5.6v1.1h-5.6z"/><path fill="#fff" d="M69.4 127.5h.92v5.36h-.93z"/><path fill="#48bcaa" d="m72.22 138.08-2.36-1.23-2.37 1.23v5.14h4.73Z"/><path fill="#fff" d="M68.8 140.56a.85.85 0 1 1 .86-.86.85.85 0 0 1-.85.86m0-1.37a.51.51 0 1 0 .5.52.5.5 0 0 0-.5-.52M70.9 142.39a.85.85 0 1 1 .85-.85.85.85 0 0 1-.85.85m0-1.36a.51.51 0 1 0 .51.51.5.5 0 0 0-.51-.51M68.43 141.82l2.85-2.85.24.24-2.85 2.85z"/><path fill="#dedffc" d="M69.43 137.95a.43.43 0 1 0 .43-.42.43.43 0 0 0-.43.42"/><path fill="#1a135a" d="M52.23 150.55a.54.54 0 1 0 .54-.54.54.54 0 0 0-.54.54"/></g><g clip-path="url(#p)" transform="translate(1.31 25.63)"><path fill="url(#q)" d="M0 0h34.42v25.09H0z" transform="rotate(-83.66 16.02 17.9)"/></g><g clip-path="url(#r)" transform="translate(2.49 25.63)"><path fill="url(#s)" d="M0 0h38.31v33.42H0z" transform="rotate(-64.35 14.47 23)"/></g><g clip-path="url(#c)"><g clip-path="url(#l)" opacity=".7" transform="translate(7.35 29.5)"><path fill="#fff" d="M11.93 5.97A5.97 5.97 0 1 1 5.97 0a5.97 5.97 0 0 1 5.96 5.97"/></g><g clip-path="url(#t)" opacity=".7" transform="translate(7.7 29.85)"><path fill="#fff" d="M11.22 5.61A5.61 5.61 0 1 1 5.61 0a5.6 5.6 0 0 1 5.61 5.61"/></g></g><g clip-path="url(#u)" transform="translate(40.81 77.95)"><path fill="url(#v)" d="M0 0h34.42v25.09H0z" transform="rotate(-83.66 16.01 17.9)"/></g><g clip-path="url(#w)" transform="translate(41.99 77.95)"><path fill="url(#x)" d="M0 0h38.31v33.42H0z" transform="rotate(-64.33 14.48 23)"/></g><g clip-path="url(#c)"><g clip-path="url(#l)" opacity=".7" transform="translate(46.85 81.81)"><path fill="#fff" d="M11.93 5.96A5.97 5.97 0 1 1 5.97 0a5.97 5.97 0 0 1 5.96 5.96"/></g><g clip-path="url(#t)" opacity=".7" transform="translate(47.2 82.17)"><path fill="#fff" d="M11.22 5.61A5.61 5.61 0 1 1 5.61 0a5.6 5.6 0 0 1 5.61 5.61"/></g><path fill="#393bb2" d="M116.65 65.7V36.16a.86.86 0 0 0-.87-.86H95.75a.86.86 0 0 0-.87.86V65.7a.86.86 0 0 0 .87.86h20.03a.86.86 0 0 0 .87-.86"/><rect width="21.76" height="31.27" fill="none" stroke="#1a145b" stroke-width="7.21" rx="1.28" transform="translate(94.88 35.3)"/><path fill="#fff" d="M97.02 37.03h17.48a.4.4 0 0 1 .42.4v27a.4.4 0 0 1-.42.4H97.02a.4.4 0 0 1-.41-.4v-27a.4.4 0 0 1 .4-.4"/><path fill="#48bcaa" d="M113.13 37.8h-14.7a1 1 0 0 0-1 1.01v24.25a1 1 0 0 0 1 1h14.7a1 1 0 0 0 1-1V38.8a1 1 0 0 0-1-1"/><g clip-path="url(#y)" opacity=".5" transform="translate(5.32 71.05)"><path fill="#fff" d="M.28 1.63A2.95 2.95 0 0 1 5.2 1.1a2.9 2.9 0 0 1-3.12 4.55A3 3 0 0 1 0 2.94a3 3 0 0 1 .28-1.3"/></g><path fill="#fff" d="M10.29 73.87a.3.3 0 0 0-.18-.17c-.9-.46-2.4-1.35-3-1.56-.11-.04-.23.05-.24.2-.06.67-.1 2.22-.12 3.03 0 .25.2.42.38.33a70 70 0 0 0 2.98-1.57c.13-.08.23-.1.18-.25"/><path fill="#fa6982" d="M109.44 62.49h-7.35a1.46 1.46 0 1 1 0-2.84h7.35a1.46 1.46 0 1 1 0 2.84"/></g><text fill="#fff" font-family="Arial-BoldMT, Arial" font-size="1" font-weight="700" transform="translate(102.16 61.4)"><tspan x="0" y="0" letter-spacing=".03em">SE</tspan><tspan y="0" letter-spacing=".03em">ARC</tspan><tspan y="0">H</tspan></text><g fill="#fff" clip-path="url(#c)"><path d="M110.93 58.8H100.4c-1.44 0-2.6-.72-2.6-1.6s1.16-1.6 2.6-1.6h10.55c1.43 0 2.6.7 2.6 1.6s-1.17 1.6-2.6 1.6M105.65 40.15a6.77 6.77 0 0 0-.18 13.54h.38a6.77 6.77 0 0 0-.2-13.54m-.2.42v3.16h-2.37a8 8 0 0 1 .5-1.37c.52-1.05 1.18-1.69 1.88-1.8m.4 0c.7.1 1.37.74 1.88 1.79a8 8 0 0 1 .5 1.38h-2.37Zm-1.54.13a5 5 0 0 0-1.09 1.49 9 9 0 0 0-.56 1.55h-2.52a6.4 6.4 0 0 1 4.17-3.05m2.7 0a6.4 6.4 0 0 1 4.17 3.04h-2.53a9 9 0 0 0-.56-1.55 5 5 0 0 0-1.09-1.5m-7.09 3.44h2.65a13 13 0 0 0-.3 2.59H99.3a6 6 0 0 1 .63-2.6Zm3.06 0h2.47v2.59h-2.78a12 12 0 0 1 .31-2.6Zm2.88 0h2.47a12 12 0 0 1 .3 2.59h-2.77Zm2.88 0h2.65a6 6 0 0 1 .63 2.59h-2.98a13 13 0 0 0-.3-2.6Zm-9.45 2.99h2.99a13 13 0 0 0 .29 2.58h-2.65a6 6 0 0 1-.63-2.59Zm3.38 0h2.78v2.58h-2.47a12 12 0 0 1-.3-2.59Zm3.19 0h2.78a12 12 0 0 1-.3 2.58h-2.48Zm3.18 0h2.98a6 6 0 0 1-.63 2.58h-2.65a13 13 0 0 0 .3-2.59Zm-8.9 2.98h2.52a9 9 0 0 0 .56 1.55 5 5 0 0 0 1.1 1.5 6.4 6.4 0 0 1-4.18-3.05Zm2.94 0h2.38v3.17c-.7-.1-1.37-.74-1.88-1.8a8 8 0 0 1-.5-1.37Zm2.78 0h2.37a8 8 0 0 1-.5 1.37c-.5 1.06-1.17 1.7-1.87 1.8Zm2.8 0h2.52a6.4 6.4 0 0 1-4.19 3.05 5 5 0 0 0 1.1-1.5 9 9 0 0 0 .56-1.55Z"/></g></g></svg>