<svg xmlns="http://www.w3.org/2000/svg" width="50.84" height="60.44" viewBox="0 0 50.84 60.44"><path fill="#fff" fill-rule="evenodd" d="M47.76 31.66V53.7a.84.84 0 0 1-.85.85h-17.8a3 3 0 0 0-1.77.6 3 3 0 0 0-.97 1.13q-.4.79-.96.79c-.27 0-.59-.01-.91-.71a3 3 0 0 0-1-1.22 3 3 0 0 0-1.77-.6H3.92a.84.84 0 0 1-.85-.85V31.66H0v25.96h17.85c1.32 0 1.75.96 2.17 1.91.21.45.42.9.64.9h9.52c.23 0 .43-.44.64-.9.42-.95.85-1.9 2.17-1.9h17.85V31.65ZM32.75 14.53a9.98 9.98 0 0 0-17.04 7.05 11.5 11.5 0 0 0 1.8 5.72l.06.1c.7 1.2 1.51 2.35 2.3 3.46l.52.74h10.66l.42-.61c2-2.86 4.2-5.97 4.2-9.4a10 10 0 0 0-2.92-7.06Zm6.03-8.5a.85.85 0 0 1 1.2 1.2l-3 3a.85.85 0 1 1-1.2-1.2Zm6.38 13.71a.85.85 0 1 1 0 1.7h-4.23a.85.85 0 1 1 0-1.7ZM10.86 7.23a.85.85 0 1 1 1.2-1.2l3 3a.85.85 0 0 1-1.2 1.2Zm-5.2 14.2a.85.85 0 1 1 0-1.7H9.9a.85.85 0 0 1 0 1.7ZM24.57.85a.85.85 0 0 1 1.7 0v4.23a.85.85 0 0 1-1.7 0ZM32 33.29c1.14 0 1.14 4.05 0 4.05H19.4c-1.14 0-1.14-4.05 0-4.05Zm-12.22 5.74 1.02 2.75a5 5 0 0 0 1.13 1.87 2.6 2.6 0 0 0 1.82.79h.82v9.42l-.09-.06a4.8 4.8 0 0 0-2.75-.93H4.76V28.63h11.57c.66 1.1 1.41 2.15 2.14 3.18-2.43 1.17-2.18 7.22.91 7.22Zm10.02 0L29 41.2a3 3 0 0 1-.72 1.24 1 1 0 0 1-.64.3h-3.9a1 1 0 0 1-.63-.3 3 3 0 0 1-.73-1.24l-.8-2.16Zm3.15-7.21c.73-1.03 1.47-2.1 2.13-3.2h10.99v24.24H29.1a4.8 4.8 0 0 0-2.75.93l-.09.06v-9.43h1.4a2.5 2.5 0 0 0 1.8-.78 5 5 0 0 0 1.14-1.88l1.01-2.74h.4c3.07.01 3.34-6 .95-7.2ZM9.06 47.92a.85.85 0 0 1 0-1.68h5.85a.85.85 0 0 1 0 1.69Zm0-5.48a.85.85 0 0 1 0-1.69h4.7a.85.85 0 0 1 0 1.7Zm32.5 3.8a.85.85 0 1 1 0 1.69h-5.85a.85.85 0 1 1 0-1.7Zm0-5.49a.85.85 0 1 1 0 1.7h-4.69a.85.85 0 1 1 0-1.7Z"/></svg>