<svg xmlns="http://www.w3.org/2000/svg" width="59.16" height="64.72" viewBox="0 0 59.16 64.72"><g fill="#fff"><path d="M4.83 7.2h5.6v2.6h-5.6ZM35.58 52.14q.18.06.37.1l.06.02.41.1.1.01.32.06.12.02.41.05h.08l.36.03.12.01.43.01.44-.01h.12l.36-.03.07-.01.42-.05.11-.02.34-.06.09-.02.42-.1h.04l.4-.12.04-.01a9.52 9.52 0 1 0-5.7 0l.06.02Zm-2.8-9.05a5.59 5.59 0 1 1 5.59 5.56 5.6 5.6 0 0 1-5.59-5.56ZM40.56 53.82l-.47.08-.1.02-.46.06h-.09q-.24.04-.49.04h-.05a12 12 0 0 1-1.05 0h-.06q-.25 0-.49-.03l-.1-.01-.45-.06-.1-.02-.46-.08-.08-.02-.48-.1-.02-.01a11 11 0 0 1-1.96-.71v11.74l4.31-5.87a.7.7 0 0 1 .61-.3.7.7 0 0 1 .6.32l3.93 5.72V52.98a11 11 0 0 1-2.47.82zM7.75 55.27l2.34-5.9H5.2Z"/><path d="M42.48 43.09a4.11 4.11 0 1 0-4.11 4.08 4.1 4.1 0 0 0 4.1-4.08M52.03 1.04V7.1h6.07Z"/><path d="M51.28 8.57a.74.74 0 0 1-.74-.74V0H17.58v54.95h14.59v-2.83a11 11 0 1 1 12.4 0v2.83h14.59V8.57Zm-29.9-1.48H38.4a.74.74 0 1 1 0 1.48h-17a.74.74 0 1 1 0-1.48m33.97 16.83H21.38a.74.74 0 0 1 0-1.48h33.97a.74.74 0 0 1 0 1.48m0-5.12H21.38a.74.74 0 0 1 0-1.48h33.97a.74.74 0 0 1 0 1.48m0-5.11H21.38a.74.74 0 1 1 0-1.48h33.97a.74.74 0 1 1 0 1.48M4.83 15.45H.73a.74.74 0 0 0-.73.74v13.4a.74.74 0 1 0 1.48 0V16.93h3.35V47.9h5.6V11.29h-5.6ZM7.63 0a2.8 2.8 0 0 0-2.8 2.79v2.93h5.6V2.79A2.8 2.8 0 0 0 7.64 0Z"/></g></svg>