<svg xmlns="http://www.w3.org/2000/svg" width="150.54" height="132.8" viewBox="0 0 150.54 132.8"><defs><clipPath id="a"><path fill="none" d="M0 0h150.54v132.8H0z"/></clipPath><clipPath id="b"><path fill="none" d="M5.42 5.14h139.7V82.8H5.41z"/></clipPath><clipPath id="c"><path fill="none" d="M23.93 72.25h15.8v3.73h-15.8z"/></clipPath><clipPath id="d"><path fill="none" d="M41.94 72.27h84.67v3.69H41.94z"/></clipPath></defs><g clip-path="url(#a)"><path fill="#6559a5" d="M90.37 100.9a2 2 0 0 0-.6-1.2 2.2 2.2 0 0 0-1.46-.37H72.28c-2.13.01-4.22-.24-6.35-.02a2 2 0 0 0-1.24.43 3 3 0 0 0-.69 2.01c-.11 1.4 0 2.82-.01 4.23l-.01 4.24c.02 4.95.04 2.37.07 7.33q0 2.4.02 4.8a43 43 0 0 0 .08 4.52 2.5 2.5 0 0 0 .5 1.3 2 2 0 0 0 .86.56 13 13 0 0 0 3.82.39q2.75.12 5.5.14c1.53.01 12.9.05 14.42-.26 1.55-.3 1.26-2.91 1.3-4.37.04-1.97 0-4.75 0-6.72 0-3.15 0-6.96-.02-9.48 0-1.85-.05-3.69-.04-5.54a10 10 0 0 0-.12-2"/><path fill="#8276b5" d="m106.71 126.06-.02-.02a1.1 1.1 0 0 0-.89-.3c-1.29-.01-2.56.05-3.85.05H65.9c-4.8 0-9.5-.05-14.3 0q-1.05-.01-2.12.05c-.58.03-1.32-.13-1.77.42s-.3 1.45-.31 2.15q-.03 1.37.01 2.73a2 2 0 0 0 .21 1.01 1.5 1.5 0 0 0 1.36.54c.6-.01 1.08-.04 1.68-.01 2.65.1 5.85.07 8.6.09q6.18.03 12.38.03H86.9l9.94-.01q3.33 0 6.66-.04a20 20 0 0 0 2.17-.1 1.6 1.6 0 0 0 1-.31c.58-.62.47-1.82.43-3.07-.04-.87-.08-1.62-.16-2.5a1.4 1.4 0 0 0-.22-.7"/><path fill="#fff" d="M149.92 90.35c-.2 5.14 1.43 14.35-7.24 15.46-8.51 1.08-72.45.95-81.04.9-10.31-.06-20.63-.2-30.93-.51-6.85-.2-14.83.19-21.47-1.37a13 13 0 0 1-4.83-1.96 7.3 7.3 0 0 1-2.8-4.63 61 61 0 0 1-.48-12.1q.05-1.96.05-3.87c-.06-5.66-.07-11.32-.12-16.98-.17-17.52-.29-8.4-.38-25.92-.02-4.99.03-9.98.05-14.97S.16 14.42.8 9.44c.34-2.63 1.13-5.5 3.83-7.1C6.6 1.2 9.17.96 11.62.8q4.14-.25 8.26-.29C26.23.44 32.54.67 38.9.8h.08q4.16.1 8.34.1c11.6-.05 78.45-.06 90.05 0 2.82 0 5.82.05 8.16 1.3a7 7 0 0 1 3.42 4.25 22 22 0 0 1 .67 7.03c-.06 6.55.23 13.04.25 19.6.03 8.91.06 22.37.05 33.5 0 5.92.2 13.92.1 20.47q-.03 1.73-.09 3.3"/><path fill="none" stroke="#ba9bc9" d="M149.92 90.35c-.2 5.14 1.43 14.35-7.24 15.46-8.51 1.08-72.45.95-81.04.9-10.31-.06-20.63-.2-30.93-.51-6.85-.2-14.83.19-21.47-1.37a13 13 0 0 1-4.83-1.96 7.3 7.3 0 0 1-2.8-4.63 61 61 0 0 1-.48-12.1q.05-1.96.05-3.87c-.06-5.66-.07-11.32-.12-16.98-.17-17.52-.29-8.4-.38-25.92-.02-4.99.03-9.98.05-14.97S.16 14.42.8 9.44c.34-2.63 1.13-5.5 3.83-7.1C6.6 1.2 9.17.96 11.62.8q4.14-.25 8.26-.29C26.23.44 32.54.67 38.9.8h.08q4.16.1 8.34.1c11.6-.05 78.45-.06 90.05 0 2.82 0 5.82.05 8.16 1.3a7 7 0 0 1 3.42 4.25 22 22 0 0 1 .67 7.03c-.06 6.55.23 13.04.25 19.6.03 8.91.06 22.37.05 33.5 0 5.92.2 13.92.1 20.47q-.03 1.73-.09 3.3Z"/><path fill="#6559a5" d="M150 87.04c-12.07.82-80.6.73-90 .68-11.55-.05-23.1-.16-34.64-.41-7.67-.17-16.62.15-24.05-1.13l-.18-.03q.06-1.97.05-3.87c-.06-5.67-.07-11.33-.12-16.99-.17-17.52-.29-8.4-.38-25.92-.02-4.99.03-9.98.05-14.97S.16 14.42.8 9.44c.34-2.63 1.13-5.5 3.83-7.1C6.59 1.2 9.17.96 11.62.8q4.14-.25 8.26-.29C26.21.57 32.53.75 38.9.8h.08q4.16.1 8.34.09c11.6-.04 78.45-.05 90.05 0 2.82 0 5.82.06 8.16 1.3a7 7 0 0 1 3.42 4.26 22 22 0 0 1 .68 7.03c-.07 6.54.22 13.03.24 19.6.03 8.91.06 22.36.05 33.5 0 5.92.2 13.92.1 20.46"/><g clip-path="url(#b)" opacity=".75"><path fill="#adb5dc" d="M144.09 9.5a5.6 5.6 0 0 0-3.2-3.12c-2.18-.9-4.99-.94-7.62-.95-10.84-.03-73.28-.02-84.12 0-11.19.03-22.16-.62-33.34-.07A18 18 0 0 0 9.28 6.5a6.3 6.3 0 0 0-3.58 5.2c-.6 3.63-.04 7.28-.06 10.92s-.07 7.3-.05 10.95c.09 12.8.2 6.13.35 18.94q.05 6.2.11 12.41c.05 3.8-.46 7.92.42 11.68a5.3 5.3 0 0 0 2.6 3.38 15 15 0 0 0 4.52 1.43c6.2 1.14 13.66.86 20.05 1q14.44.32 28.9.37c8.02.04 67.75.13 75.7-.66 8.1-.8 6.58-7.54 6.76-11.3.25-5.1-.01-12.28 0-17.38 0-8.14-.02-17.97-.05-24.48-.03-4.8-.3-9.54-.23-14.33a13 13 0 0 0-.64-5.13"/></g><path fill="#ed1c24" d="M26.75 70.61a4.29 4.29 0 1 1-4.29 4.29 4.3 4.3 0 0 1 4.29-4.29m0-1.02a5.3 5.3 0 1 0 5.3 5.31 5.3 5.3 0 0 0-5.3-5.3"/><path fill="#ed1c24" d="M29.63 71.5a.5.5 0 0 0-.35.16l-5.78 5.76a.51.51 0 1 0 .72.73L30 72.38a.5.5 0 0 0-.37-.87"/><path fill="#3bf455" d="M43.05 20.32H36.7v-1.15a3 3 0 0 1 .18-.96 4 4 0 0 1 .7-1.14q.51-.64 1.09-1.23l.71-.73q.22-.21.95-1.03a8 8 0 0 0 .96-1.24 2 2 0 0 0 .23-.84 1.2 1.2 0 0 0-.54-1.05 2 2 0 0 0-1.21-.37 5 5 0 0 0-.86.09 6 6 0 0 0-.84.2q-.35.13-1.15.49v-1.12a7 7 0 0 1 1.7-.55 8 8 0 0 1 1.4-.16 4 4 0 0 1 1.5.27 2 2 0 0 1 1.02.83 2.3 2.3 0 0 1 .33 1.2 3 3 0 0 1-.43 1.45 10 10 0 0 1-1.62 1.91l-.77.77-.64.63a8 8 0 0 0-1 1.2 3 3 0 0 0-.41 1.38h5.03ZM48.96 19.27V11.2a10 10 0 0 1-1.1.77 8 8 0 0 1-1.46.65v-1.13a9 9 0 0 0 2.56-1.63h1.26v9.42h2.52v1.05H46.4v-1.05ZM59.33 20.32V17.4h-4.45v-1.05l4.45-6.49h1.26v6.49h1.94v1.05h-1.94v2.93Zm0-3.98v-4.59l-3.11 4.59ZM68.13 20.64a1 1 0 0 1-.78-.33 1.1 1.1 0 0 1 0-1.55 1 1 0 0 1 .78-.32 1 1 0 0 1 .77.32 1 1 0 0 1 .33.78 1.1 1.1 0 0 1-1.1 1.1M77.55 9.53a3 3 0 0 1 2.73 1.5 7.6 7.6 0 0 1 .93 4.05 7.6 7.6 0 0 1-.93 4.05 3.22 3.22 0 0 1-5.45 0 7.6 7.6 0 0 1-.94-4.05 7.6 7.6 0 0 1 .94-4.05 3 3 0 0 1 2.72-1.5m-2.04 7.8 3.62-5.68a2 2 0 0 0-.75-.85 2 2 0 0 0-.83-.22 1.85 1.85 0 0 0-1.71 1.25 7.5 7.5 0 0 0-.59 3.18l.03.94a8 8 0 0 0 .23 1.38m4.07-4.43-3.6 5.71a2 2 0 0 0 .68.74 1.5 1.5 0 0 0 .84.24 1.9 1.9 0 0 0 1.82-1.43 9 9 0 0 0 .54-3.18 8 8 0 0 0-.28-2.08M86.98 20.64a1 1 0 0 1-.78-.33 1.1 1.1 0 0 1 0-1.55 1.1 1.1 0 0 1 1.55 0 1.1 1.1 0 0 1 0 1.55 1 1 0 0 1-.78.33M96.4 9.53a3 3 0 0 1 2.73 1.5 7.6 7.6 0 0 1 .94 4.05 7.6 7.6 0 0 1-.94 4.05 3.22 3.22 0 0 1-5.45 0 7.6 7.6 0 0 1-.94-4.05 7.6 7.6 0 0 1 .94-4.05 3 3 0 0 1 2.73-1.5m-2.05 7.8L98 11.65a2 2 0 0 0-.75-.85 2 2 0 0 0-.83-.22 1.85 1.85 0 0 0-1.72 1.25 7.5 7.5 0 0 0-.59 3.18l.03.94a8 8 0 0 0 .23 1.38m4.08-4.43-3.6 5.71a2 2 0 0 0 .67.74 1.5 1.5 0 0 0 .84.24 1.9 1.9 0 0 0 1.82-1.43 9 9 0 0 0 .54-3.18 8 8 0 0 0-.27-2.08M105.83 20.64a1 1 0 0 1-.78-.33 1.1 1.1 0 0 1 0-1.55 1.1 1.1 0 0 1 1.55 0 1.1 1.1 0 0 1 0 1.55 1 1 0 0 1-.77.33M115.26 9.53a3 3 0 0 1 2.72 1.5 7.6 7.6 0 0 1 .94 4.05 7.6 7.6 0 0 1-.94 4.05 3.22 3.22 0 0 1-5.45 0 7.6 7.6 0 0 1-.94-4.05 7.6 7.6 0 0 1 .94-4.05 3 3 0 0 1 2.73-1.5m-2.05 7.8 3.63-5.68a2 2 0 0 0-.75-.85 2 2 0 0 0-.83-.22 1.85 1.85 0 0 0-1.72 1.25 7.5 7.5 0 0 0-.59 3.18l.03.94a8 8 0 0 0 .23 1.38m4.08-4.43-3.6 5.7a2 2 0 0 0 .67.74 1.5 1.5 0 0 0 .84.25 1.9 1.9 0 0 0 1.82-1.43 9 9 0 0 0 .54-3.18 8 8 0 0 0-.27-2.08M43.05 35.3H36.7v-1.16a3 3 0 0 1 .18-.96 4 4 0 0 1 .7-1.14q.51-.64 1.09-1.22l.71-.73q.22-.22.95-1.03a8 8 0 0 0 .96-1.25 2 2 0 0 0 .23-.84 1.2 1.2 0 0 0-.54-1.05 2 2 0 0 0-1.21-.37 5 5 0 0 0-.86.1 6 6 0 0 0-.84.2q-.35.12-1.15.48v-1.11a7 7 0 0 1 1.7-.56 8 8 0 0 1 1.4-.15 4 4 0 0 1 1.5.26 2 2 0 0 1 1.02.83 2.3 2.3 0 0 1 .33 1.2 3 3 0 0 1-.43 1.45 10 10 0 0 1-1.62 1.91l-.77.77-.64.63a8 8 0 0 0-1 1.2 3 3 0 0 0-.4 1.39h5.02ZM49.28 24.5A3 3 0 0 1 52 26.02a7.6 7.6 0 0 1 .94 4.04 7.6 7.6 0 0 1-.94 4.06 3.22 3.22 0 0 1-5.45 0 7.6 7.6 0 0 1-.94-4.06 7.6 7.6 0 0 1 .94-4.04 3 3 0 0 1 2.73-1.5m-2.05 7.79 3.63-5.68a2 2 0 0 0-.75-.85 2 2 0 0 0-.83-.22 1.85 1.85 0 0 0-1.72 1.26 7.5 7.5 0 0 0-.59 3.17l.03.95a8 8 0 0 0 .23 1.37m4.08-4.43-3.6 5.71a2 2 0 0 0 .67.74 1.5 1.5 0 0 0 .84.24 1.9 1.9 0 0 0 1.82-1.43 9 9 0 0 0 .54-3.18 8 8 0 0 0-.28-2.08M58.7 24.5a3 3 0 0 1 2.72 1.5 7.6 7.6 0 0 1 .94 4.05 7.6 7.6 0 0 1-.94 4.05 3.22 3.22 0 0 1-5.44 0 7.6 7.6 0 0 1-.94-4.05 7.6 7.6 0 0 1 .94-4.04 3 3 0 0 1 2.72-1.5m-2.04 7.79 3.62-5.68a2 2 0 0 0-.75-.85 2 2 0 0 0-.83-.22 1.85 1.85 0 0 0-1.72 1.26 7.5 7.5 0 0 0-.58 3.17q0 .45.03.95a8 8 0 0 0 .23 1.37m4.07-4.43-3.6 5.71a2 2 0 0 0 .67.74 1.5 1.5 0 0 0 .84.24 1.9 1.9 0 0 0 1.83-1.43 9 9 0 0 0 .54-3.18 8 8 0 0 0-.28-2.08M67.81 34.25v-8.09a10 10 0 0 1-1.1.77 8 8 0 0 1-1.46.65v-1.13a9 9 0 0 0 2.56-1.63h1.26v9.43h2.52v1.04h-6.34v-1.04ZM77.55 29.75a1 1 0 0 1-.77-.33 1.1 1.1 0 0 1 0-1.55 1.1 1.1 0 0 1 1.54 0 1.1 1.1 0 0 1 0 1.55 1 1 0 0 1-.77.32m0 5.87a1 1 0 0 1-.78-.32 1.1 1.1 0 0 1 0-1.56 1.1 1.1 0 0 1 1.54 0 1.1 1.1 0 0 1 0 1.56 1 1 0 0 1-.77.32M87.6 35.3v-2.94h-4.44v-1.05l4.45-6.49h1.26v6.5h1.94v1.04h-1.94v2.93Zm0-3.99v-4.59l-3.1 4.6ZM95.36 29.65l-.23-.17a4 4 0 0 1-.94-1 2.5 2.5 0 0 1-.45-1.45 2.3 2.3 0 0 1 .82-1.78 3 3 0 0 1 2.1-.74 3 3 0 0 1 1.38.28 2 2 0 0 1 .96.83 2 2 0 0 1 .34 1.19 2 2 0 0 1-.15.86 3 3 0 0 1-.47.82 8 8 0 0 1-1.21 1.16l.56.44a6 6 0 0 1 1.34 1.4 2.6 2.6 0 0 1 .34 1.32 2.7 2.7 0 0 1-.82 1.97 3.3 3.3 0 0 1-2.47.83 3.5 3.5 0 0 1-2.48-.78 2.6 2.6 0 0 1-.82-1.93q0-1.72 2.2-3.25m.94.66q-1.77 1.37-1.77 2.57a1.5 1.5 0 0 0 .58 1.2 2 2 0 0 0 1.39.48 2 2 0 0 0 1.32-.47 1.4 1.4 0 0 0 .58-1.16 2 2 0 0 0-.7-1.38q-.7-.7-.98-.92Zm.35-1.31a4 4 0 0 0 1.19-1.2 2 2 0 0 0 .24-.9 1.2 1.2 0 0 0-.45-.93 1.6 1.6 0 0 0-1.14-.41 1.5 1.5 0 0 0-1.15.45 1.4 1.4 0 0 0-.4.94 1.4 1.4 0 0 0 .33.89 5 5 0 0 0 1.06.93ZM105.83 24.5a3 3 0 0 1 2.72 1.5 7.6 7.6 0 0 1 .94 4.05 7.6 7.6 0 0 1-.94 4.05 3.22 3.22 0 0 1-5.44 0 7.6 7.6 0 0 1-.94-4.05 7.6 7.6 0 0 1 .94-4.04 3 3 0 0 1 2.72-1.5m-2.04 7.79 3.62-5.68a2 2 0 0 0-.75-.85 2 2 0 0 0-.83-.22 1.85 1.85 0 0 0-1.71 1.26 7.5 7.5 0 0 0-.6 3.17q0 .45.04.95a8 8 0 0 0 .23 1.37m4.07-4.43-3.6 5.71a2 2 0 0 0 .68.74 1.5 1.5 0 0 0 .83.24 1.9 1.9 0 0 0 1.83-1.43 9 9 0 0 0 .54-3.18 8 8 0 0 0-.28-2.08M115.26 29.75a1 1 0 0 1-.78-.33 1.1 1.1 0 0 1 0-1.55 1.1 1.1 0 0 1 1.54 0 1.1 1.1 0 0 1 0 1.55 1 1 0 0 1-.77.32m0 5.87a1 1 0 0 1-.78-.32 1.1 1.1 0 0 1 0-1.56 1.1 1.1 0 0 1 1.55 0 1.1 1.1 0 0 1 0 1.56 1 1 0 0 1-.78.32M124.69 29.75a1 1 0 0 1-.78-.33 1.1 1.1 0 0 1 0-1.55 1.1 1.1 0 0 1 1.54 0 1.1 1.1 0 0 1 0 1.55 1 1 0 0 1-.77.32m0 5.87a1 1 0 0 1-.78-.32 1.1 1.1 0 0 1 0-1.56 1.1 1.1 0 0 1 1.55 0 1.1 1.1 0 0 1 0 1.56 1 1 0 0 1-.78.32"/><path fill="#ed1c24" d="M43.05 50.27H36.7V49.1a3 3 0 0 1 .18-.95 4 4 0 0 1 .7-1.15q.51-.64 1.09-1.22l.71-.73q.22-.22.95-1.03a8 8 0 0 0 .96-1.25 2 2 0 0 0 .23-.84 1.2 1.2 0 0 0-.54-1.05 2 2 0 0 0-1.21-.37 5 5 0 0 0-.86.1 6 6 0 0 0-.84.2q-.35.12-1.15.48V40.2a7 7 0 0 1 1.7-.56 8 8 0 0 1 1.4-.15 4 4 0 0 1 1.5.27 2 2 0 0 1 1.02.82 2.3 2.3 0 0 1 .33 1.2 3 3 0 0 1-.43 1.45 10 10 0 0 1-1.62 1.91l-.77.77-.64.63a8 8 0 0 0-1 1.2 3 3 0 0 0-.4 1.38h5.02ZM52.48 50.27h-6.34V49.1a3 3 0 0 1 .18-.95 4 4 0 0 1 .7-1.15q.5-.64 1.08-1.22l.72-.73.94-1.03a8 8 0 0 0 .96-1.25 2 2 0 0 0 .24-.84 1.2 1.2 0 0 0-.54-1.05 2 2 0 0 0-1.22-.37 5 5 0 0 0-.86.1 6 6 0 0 0-.83.2q-.36.12-1.16.48V40.2a7 7 0 0 1 1.7-.56 8 8 0 0 1 1.4-.15 4 4 0 0 1 1.5.27 2 2 0 0 1 1.02.82 2.3 2.3 0 0 1 .34 1.2 3 3 0 0 1-.43 1.45 10 10 0 0 1-1.62 1.91l-.77.77-.64.63a8 8 0 0 0-1 1.2 3 3 0 0 0-.41 1.38h5.03ZM59.33 50.27v-2.93h-4.45v-1.06l4.45-6.49h1.26v6.5h1.94v1.05h-1.94v2.93Zm0-3.99V41.7l-3.11 4.59ZM68.13 50.58a1 1 0 0 1-.78-.32 1.1 1.1 0 0 1 0-1.56 1 1 0 0 1 .78-.32 1 1 0 0 1 .77.32 1 1 0 0 1 .33.78 1.1 1.1 0 0 1-1.1 1.1M77.24 49.22v-8.08a10 10 0 0 1-1.1.76 8 8 0 0 1-1.46.65v-1.13a9 9 0 0 0 2.56-1.62h1.26v9.42h2.52v1.05h-6.34v-1.05ZM86.98 50.58a1 1 0 0 1-.78-.32 1.1 1.1 0 0 1 0-1.56 1.1 1.1 0 0 1 1.55 0 1.1 1.1 0 0 1 0 1.56 1 1 0 0 1-.78.32M96.1 49.22v-8.08a10 10 0 0 1-1.1.76 8 8 0 0 1-1.47.65v-1.13a9 9 0 0 0 2.56-1.62h1.26v9.42h2.52v1.05h-6.34v-1.05ZM105.83 50.58a1 1 0 0 1-.78-.32 1.1 1.1 0 0 1 0-1.56 1.1 1.1 0 0 1 1.55 0 1.1 1.1 0 0 1 0 1.56 1 1 0 0 1-.77.32M114.94 49.22v-8.08a10 10 0 0 1-1.1.76 8 8 0 0 1-1.46.65v-1.13a9 9 0 0 0 2.56-1.62h1.26v9.42h2.52v1.05h-6.34v-1.05Z"/><path fill="#3bf455" d="M43.05 65.24H36.7v-1.15a3 3 0 0 1 .18-.96 4 4 0 0 1 .7-1.15q.51-.63 1.09-1.22l.71-.73q.22-.21.95-1.03a8 8 0 0 0 .96-1.24 2 2 0 0 0 .23-.85 1.2 1.2 0 0 0-.54-1.04 2 2 0 0 0-1.21-.37 5 5 0 0 0-.86.09 6 6 0 0 0-.84.2q-.35.12-1.15.48v-1.1a7 7 0 0 1 1.7-.56 8 8 0 0 1 1.4-.16 4 4 0 0 1 1.5.27 2 2 0 0 1 1.02.83 2.3 2.3 0 0 1 .33 1.2 3 3 0 0 1-.43 1.44 10 10 0 0 1-1.61 1.91l-.77.76-.65.64a8 8 0 0 0-.99 1.2 3 3 0 0 0-.41 1.38h5.03ZM48.96 64.2v-8.1a10 10 0 0 1-1.1.78 8 8 0 0 1-1.46.64V56.4a9 9 0 0 0 2.56-1.62h1.26v9.42h2.52v1.05H46.4v-1.05ZM59.33 65.24V62.3h-4.45v-1.05l4.45-6.5h1.26v6.5h1.94v1.05h-1.94v2.93Zm0-3.98v-4.6l-3.11 4.6ZM68.13 65.55a1 1 0 0 1-.78-.32 1.1 1.1 0 0 1 0-1.55 1 1 0 0 1 .78-.32 1 1 0 0 1 .77.32 1 1 0 0 1 .33.78 1.1 1.1 0 0 1-1.1 1.1M77.55 54.45a3 3 0 0 1 2.73 1.5A7.6 7.6 0 0 1 81.2 60a7.6 7.6 0 0 1-.93 4.05 3.22 3.22 0 0 1-5.45 0 7.6 7.6 0 0 1-.94-4.05 7.6 7.6 0 0 1 .94-4.04 3 3 0 0 1 2.72-1.5m-2.04 7.79 3.62-5.68a2 2 0 0 0-.75-.85 2 2 0 0 0-.83-.22 1.85 1.85 0 0 0-1.71 1.26 7.5 7.5 0 0 0-.59 3.17l.03.95a8 8 0 0 0 .23 1.37m4.07-4.43-3.6 5.71a2 2 0 0 0 .68.74 1.5 1.5 0 0 0 .84.24 1.9 1.9 0 0 0 1.82-1.43 9 9 0 0 0 .54-3.18 8 8 0 0 0-.28-2.08M86.98 65.55a1 1 0 0 1-.78-.32 1.1 1.1 0 0 1 0-1.55 1.1 1.1 0 0 1 1.55 0 1.1 1.1 0 0 1 0 1.55 1 1 0 0 1-.78.32M96.4 54.45a3 3 0 0 1 2.73 1.5 7.6 7.6 0 0 1 .94 4.05 7.6 7.6 0 0 1-.94 4.05 3.22 3.22 0 0 1-5.45 0 7.6 7.6 0 0 1-.94-4.05 7.6 7.6 0 0 1 .94-4.04 3 3 0 0 1 2.73-1.5m-2.05 7.79L98 56.57a2 2 0 0 0-.75-.85 2 2 0 0 0-.83-.22 1.85 1.85 0 0 0-1.72 1.26 7.5 7.5 0 0 0-.59 3.17l.03.95a8 8 0 0 0 .23 1.37m4.08-4.43-3.6 5.71a2 2 0 0 0 .67.74 1.5 1.5 0 0 0 .84.24 1.9 1.9 0 0 0 1.82-1.43 9 9 0 0 0 .54-3.18 8 8 0 0 0-.27-2.08M105.83 65.55a1 1 0 0 1-.78-.32 1.1 1.1 0 0 1 0-1.55 1.1 1.1 0 0 1 1.55 0 1.1 1.1 0 0 1 0 1.55 1 1 0 0 1-.77.32M112.38 59.8v-5.03h5.87v1.2h-4.62v2.56h.22a5.6 5.6 0 0 1 3.49.95 3 3 0 0 1 1.22 2.54 3.3 3.3 0 0 1-1.89 3.08 4 4 0 0 1-1.9.45 9 9 0 0 1-2.6-.5V63.7a6 6 0 0 0 1.28.51 5 5 0 0 0 1.32.2 2.6 2.6 0 0 0 1.17-.29 2 2 0 0 0 .89-.85 2.3 2.3 0 0 0 .32-1.14 2 2 0 0 0-.87-1.65 5 5 0 0 0-3.08-.68Z"/><path fill="#ed1c24" d="M43.05 80.21H36.7v-1.15a3 3 0 0 1 .18-.96 4 4 0 0 1 .7-1.14q.51-.64 1.09-1.22l.71-.74q.22-.22.94-1.03a8 8 0 0 0 .97-1.24 2 2 0 0 0 .23-.85 1.2 1.2 0 0 0-.54-1.05 2 2 0 0 0-1.22-.36 5 5 0 0 0-.86.09 6 6 0 0 0-.83.2q-.36.12-1.16.48v-1.1a7 7 0 0 1 1.7-.56 8 8 0 0 1 1.4-.16 4 4 0 0 1 1.5.27 2 2 0 0 1 1.02.83 2.3 2.3 0 0 1 .34 1.2 3 3 0 0 1-.43 1.44 10 10 0 0 1-1.62 1.92l-.77.76-.65.63a8 8 0 0 0-.99 1.2 3 3 0 0 0-.41 1.39h5.03ZM48.96 79.16v-8.08a10 10 0 0 1-1.1.77 8 8 0 0 1-1.46.65v-1.14a9 9 0 0 0 2.56-1.62h1.26v9.42h2.52v1.05H46.4v-1.05ZM59.33 80.21v-2.93h-4.45v-1.05l4.45-6.49h1.26v6.49h1.94v1.05h-1.94v2.93Zm0-3.98v-4.59l-3.11 4.59ZM68.13 80.53a1 1 0 0 1-.78-.33 1.1 1.1 0 0 1 0-1.55 1 1 0 0 1 .78-.32 1 1 0 0 1 .77.32 1 1 0 0 1 .33.78 1.1 1.1 0 0 1-1.1 1.1M76.5 74.56l-.22-.17a4 4 0 0 1-.94-1 2.5 2.5 0 0 1-.46-1.44 2.3 2.3 0 0 1 .83-1.79 3 3 0 0 1 2.09-.74 3 3 0 0 1 1.39.29 2 2 0 0 1 .96.83 2 2 0 0 1 .34 1.19 2 2 0 0 1-.16.86 3 3 0 0 1-.46.82 8 8 0 0 1-1.22 1.15l.57.45a6 6 0 0 1 1.34 1.4 2.6 2.6 0 0 1 .34 1.32 2.7 2.7 0 0 1-.83 1.96 3.3 3.3 0 0 1-2.46.84 3.5 3.5 0 0 1-2.48-.78 2.6 2.6 0 0 1-.83-1.93q0-1.72 2.2-3.26m.95.67q-1.78 1.37-1.78 2.57a1.5 1.5 0 0 0 .59 1.2 2 2 0 0 0 1.39.47 2 2 0 0 0 1.31-.46 1.4 1.4 0 0 0 .58-1.16 2 2 0 0 0-.7-1.38q-.7-.7-.98-.92Zm.35-1.31a4 4 0 0 0 1.19-1.2 2 2 0 0 0 .24-.91 1.2 1.2 0 0 0-.45-.92 1.6 1.6 0 0 0-1.15-.42 1.5 1.5 0 0 0-1.15.45 1.34 1.34 0 0 0-.06 1.83 5 5 0 0 0 1.06.94ZM84.8 75.3a4 4 0 0 1 1.2-1.18 3 3 0 0 1 1.6-.46 3 3 0 0 1 1.54.4 2.7 2.7 0 0 1 1.11 1.11 3.4 3.4 0 0 1 .39 1.66 3.8 3.8 0 0 1-.96 2.6 3.2 3.2 0 0 1-2.51 1.1 3 3 0 0 1-2.74-1.54 7.6 7.6 0 0 1-.9-3.9 6.7 6.7 0 0 1 1.15-4.14 3.7 3.7 0 0 1 3.12-1.53 7 7 0 0 1 2.05.32V71a5 5 0 0 0-2.1-.53 2.4 2.4 0 0 0-2.18 1.29 6.3 6.3 0 0 0-.77 3.26Zm2.47 4.18a2 2 0 0 0 1.02-.3 2 2 0 0 0 .8-.92 3 3 0 0 0 .3-1.36 2.4 2.4 0 0 0-.5-1.58 1.7 1.7 0 0 0-1.42-.61 2 2 0 0 0-1.56.71 2.6 2.6 0 0 0-.61 1.73 2.4 2.4 0 0 0 .6 1.68 1.8 1.8 0 0 0 1.37.65M96.4 80.53a1 1 0 0 1-.77-.33 1.1 1.1 0 0 1 0-1.55 1.1 1.1 0 0 1 1.54 0 1.1 1.1 0 0 1 0 1.55 1 1 0 0 1-.77.33M109.03 80.21h-6.34v-1.15a3 3 0 0 1 .18-.96 4 4 0 0 1 .7-1.14q.51-.64 1.09-1.22l.71-.74q.22-.21.95-1.03a8 8 0 0 0 .96-1.24 2 2 0 0 0 .23-.84 1.2 1.2 0 0 0-.54-1.05 2 2 0 0 0-1.22-.37 5 5 0 0 0-.85.09 6 6 0 0 0-.84.2q-.35.13-1.15.49v-1.12a7 7 0 0 1 1.7-.55 8 8 0 0 1 1.4-.16 4 4 0 0 1 1.5.27 2 2 0 0 1 1.02.83 2.3 2.3 0 0 1 .33 1.2 3 3 0 0 1-.43 1.44 10 10 0 0 1-1.62 1.92l-.77.76-.64.63a8 8 0 0 0-1 1.2 3 3 0 0 0-.4 1.39h5.03ZM115.26 80.53a1 1 0 0 1-.78-.33 1.1 1.1 0 0 1 0-1.55 1.1 1.1 0 0 1 1.54 0 1.1 1.1 0 0 1 0 1.55 1 1 0 0 1-.77.33M124.69 69.42a3 3 0 0 1 2.72 1.5 7.6 7.6 0 0 1 .93 4.05 7.6 7.6 0 0 1-.93 4.05 3.22 3.22 0 0 1-5.45 0 7.6 7.6 0 0 1-.94-4.05 7.6 7.6 0 0 1 .94-4.05 3 3 0 0 1 2.73-1.5m-2.05 7.8 3.62-5.68a2 2 0 0 0-.75-.85 2 2 0 0 0-.83-.22 1.85 1.85 0 0 0-1.71 1.25 7.5 7.5 0 0 0-.59 3.18l.03.94a8 8 0 0 0 .23 1.38m4.07-4.43-3.6 5.71a2 2 0 0 0 .68.73 1.5 1.5 0 0 0 .84.25 1.9 1.9 0 0 0 1.82-1.43 9 9 0 0 0 .54-3.18 8 8 0 0 0-.28-2.08M26.75 40.74a4.29 4.29 0 1 1-4.3 4.29 4.3 4.3 0 0 1 4.3-4.29m0-1.02a5.3 5.3 0 1 0 5.3 5.3 5.3 5.3 0 0 0-5.3-5.3"/><path fill="#ed1c24" d="M29.63 41.64a.5.5 0 0 0-.35.15l-5.78 5.76a.51.51 0 1 0 .72.72L30 42.51a.5.5 0 0 0-.37-.87"/><path fill="#3bf455" d="M30.5 12.49a5.31 5.31 0 1 0 1.56 3.75 5.3 5.3 0 0 0-1.56-3.75m-.65 6.85a4.39 4.39 0 1 1 1.28-3.1 4.4 4.4 0 0 1-1.28 3.1"/><path fill="#3bf455" d="m26.44 17.16-1.44-2-.75.54 2.13 2.96 3.19-3.77-.7-.6ZM30.5 27.14a5.31 5.31 0 1 0 1.56 3.76 5.3 5.3 0 0 0-1.56-3.76M29.85 34a4.39 4.39 0 1 1 1.28-3.1 4.4 4.4 0 0 1-1.28 3.1"/><path fill="#3bf455" d="m26.44 31.82-1.44-2-.75.54 2.13 2.96 3.19-3.77-.7-.6ZM30.5 56.4a5.31 5.31 0 1 0 1.56 3.76 5.3 5.3 0 0 0-1.56-3.75m-.65 6.85a4.39 4.39 0 1 1 1.28-3.1 4.4 4.4 0 0 1-1.28 3.1"/><path fill="#3bf455" d="m26.44 61.08-1.44-2-.75.54 2.13 2.95 3.19-3.76-.7-.6Z"/><g clip-path="url(#c)" opacity=".28"><path fill="#fff" d="M39.5 72.5a.7.7 0 0 0-.43-.18 42 42 0 0 0-4.42 0q-1.8-.01-3.59.01c-2.14.04-3.33-.05-5.24.1-1.23.08-1.66.3-1.77.7a5 5 0 0 0-.07 1.75c.16.92.72 1.06 2.83 1.08 3.67.04 8.1 0 12.06-.01a.85.85 0 0 0 .84-.85q.02-.57.01-1.15c-.01-.54.07-1.15-.23-1.45"/></g><g clip-path="url(#d)" opacity=".28"><path fill="#fff" d="M126.51 73.57c0-.36-.02-.94-.5-1.16a1 1 0 0 0-.47-.1q-1.11-.06-2.22-.04c-4.52.04-8.98.07-13.5.07l-15.59-.01H83.57l-8.68-.01H42.4a.46.46 0 0 0-.45.46q.01 1.35.05 2.71a.46.46 0 0 0 .45.45h1.22c7.16.03 72.19.04 77.8-.04q1.16.01 2.3.05 1 0 2-.02c.55 0 .76-.37.82-.81a8 8 0 0 0-.07-1.55"/></g></g></svg>