<svg xmlns="http://www.w3.org/2000/svg" width="82.15" height="82.15" viewBox="0 0 82.15 82.15"><path fill="#2ca695" d="M24.94 5.87a1.47 1.47 0 0 0-1.47 1.46V8.8h20.54V7.33a1.47 1.47 0 0 0-1.47-1.46ZM58.68 35.2a23.5 23.5 0 1 0 16.59 6.89 23.5 23.5 0 0 0-16.6-6.88M44.57 62.98a1.5 1.5 0 0 1-1.6-.32l-2.93-2.93a1.47 1.47 0 0 1 2.07-2.08l.46.46a16.12 16.12 0 0 1 30.07-7.5 1.47 1.47 0 0 1-2.54 1.47 13.19 13.19 0 0 0-24.6 5.96l.4-.4a1.47 1.47 0 0 1 2.08 2.08l-2.94 2.93a2 2 0 0 1-.47.32Zm32.75-1.79a1.47 1.47 0 0 1-2.07 0l-.56-.56a16.12 16.12 0 0 1-28.91 7.74 1.47 1.47 0 0 1 2.35-1.76 13.19 13.19 0 0 0 23.54-5.63l-.21.22a1.47 1.47 0 0 1-2.08-2.08l2.93-2.93a1.47 1.47 0 0 1 2.08 0l2.94 2.93a1.47 1.47 0 0 1-.01 2.08Z"/><path fill="#2ca695" d="M20.54 7.34a4.4 4.4 0 0 1 4.4-4.4h17.6a4.4 4.4 0 0 1 4.4 4.4V8.8h20.54V4.4a4.4 4.4 0 0 0-4.4-4.4H4.4A4.4 4.4 0 0 0 0 4.4v4.4h20.54Zm36.67-4.4h5.87a1.47 1.47 0 0 1 0 2.93h-5.87a1.47 1.47 0 0 1 0-2.94M5.87 5.87H4.4a1.47 1.47 0 0 1 0-2.94h1.47a1.47 1.47 0 0 1 0 2.94Zm7.33 0h-1.46a1.47 1.47 0 0 1 0-2.94h1.46a1.47 1.47 0 0 1 0 2.94ZM4.4 64.55h28.55A26.33 26.33 0 0 1 67.48 33.8V11.74H0v48.4a4.4 4.4 0 0 0 4.4 4.4Z"/></svg>