<svg xmlns="http://www.w3.org/2000/svg" width="82.15" height="82.15" viewBox="0 0 82.15 82.15"><g fill="#2ca695"><path d="M2.93 14.67h64.55a2.93 2.93 0 0 0 2.94-2.93v-8.8A2.93 2.93 0 0 0 67.48 0H2.93A2.93 2.93 0 0 0 0 2.93v8.8a2.93 2.93 0 0 0 2.93 2.94ZM61.61 2.93h2.94a1.47 1.47 0 0 1 0 2.94H61.6a1.47 1.47 0 0 1 0-2.94m0 5.87h2.94a1.47 1.47 0 0 1 0 2.94H61.6a1.47 1.47 0 0 1 0-2.94m-8.8-5.87h2.94a1.47 1.47 0 0 1 0 2.94H52.8a1.47 1.47 0 0 1 0-2.94Zm0 5.87h2.94a1.47 1.47 0 0 1 0 2.94H52.8a1.47 1.47 0 0 1 0-2.94Zm-8.8-5.87h2.94a1.47 1.47 0 0 1 0 2.94H44a1.47 1.47 0 0 1 0-2.94Zm0 5.87h2.94a1.47 1.47 0 0 1 0 2.94H44a1.47 1.47 0 0 1 0-2.94ZM19.07 2.93a4.4 4.4 0 1 1-3.11 1.3 4.4 4.4 0 0 1 3.11-1.3m-11.74 0a4.4 4.4 0 1 1-3.1 1.3 4.4 4.4 0 0 1 3.1-1.3M20.54 24.94a1.47 1.47 0 1 1-1.47-1.47 1.47 1.47 0 0 1 1.47 1.47M8.8 24.94a1.47 1.47 0 1 1-1.47-1.47 1.47 1.47 0 0 1 1.47 1.47"/><path d="M8.8 7.33a1.47 1.47 0 1 1-1.47-1.46A1.47 1.47 0 0 1 8.8 7.33M20.54 7.33a1.47 1.47 0 1 1-1.47-1.46 1.47 1.47 0 0 1 1.47 1.46M2.93 32.27h26.41v-2.05a3.54 3.54 0 0 1 3.37-3.61c12.43-.36 20.08-4.05 22.8-5.62a3.4 3.4 0 0 1 3.4 0 41 41 0 0 0 11.5 4.25v-4.7a2.93 2.93 0 0 0-2.93-2.94H2.93A2.93 2.93 0 0 0 0 20.54v8.8a2.93 2.93 0 0 0 2.93 2.93Zm16.14-11.73a4.4 4.4 0 1 1-3.11 1.29 4.4 4.4 0 0 1 3.11-1.3m-11.74 0a4.4 4.4 0 1 1-3.1 1.29 4.4 4.4 0 0 1 3.1-1.3M8.8 60.15a1.47 1.47 0 1 1-1.47-1.47 1.47 1.47 0 0 1 1.47 1.47"/><path d="M2.93 67.48h32.68a43 43 0 0 1-5.56-14.67H2.93A2.93 2.93 0 0 0 0 55.75v8.8a2.93 2.93 0 0 0 2.93 2.93Zm16.14-11.73a4.4 4.4 0 1 1-3.11 1.28 4.4 4.4 0 0 1 3.11-1.28m-11.74 0a4.4 4.4 0 1 1-3.1 1.28 4.4 4.4 0 0 1 3.1-1.28M38.16 35.08l-.02 9.98a32.9 32.9 0 0 0 16.16 28.8l2.91 1.65 2.91-1.66a32.9 32.9 0 0 0 16.16-28.79v-9.99a58 58 0 0 1-19.07-5.04 58 58 0 0 1-19.06 5.05ZM20.54 42.54a1.47 1.47 0 1 1-1.47-1.46 1.47 1.47 0 0 1 1.47 1.46"/><path d="M20.54 60.15a1.47 1.47 0 1 1-1.47-1.47 1.47 1.47 0 0 1 1.47 1.47M8.8 42.54a1.47 1.47 0 1 1-1.47-1.46 1.47 1.47 0 0 1 1.47 1.46M82.15 30.22a.64.64 0 0 0-.53-.67c-13.1-.38-21.27-4.34-24.18-6.02a.4.4 0 0 0-.45 0c-2.91 1.68-11.1 5.64-24.19 6.02a.64.64 0 0 0-.53.67v14.84a38.8 38.8 0 0 0 19.13 33.9l5.44 3.1a.7.7 0 0 0 .74 0l5.45-3.1a38.8 38.8 0 0 0 19.12-33.9Zm-2.93 14.84A35.9 35.9 0 0 1 61.58 76.4l-2.92 1.66a3 3 0 0 1-2.9 0l-2.91-1.66A35.9 35.9 0 0 1 35.2 45.06v-9.98a2.93 2.93 0 0 1 2.65-2.92 55 55 0 0 0 18.1-4.78 3 3 0 0 1 2.5 0 55 55 0 0 0 18.1 4.78 2.93 2.93 0 0 1 2.66 2.92Z"/><path d="M2.93 49.88h26.7a44 44 0 0 1-.29-4.82v-9.85H2.94A2.93 2.93 0 0 0 0 38.14v8.8a2.93 2.93 0 0 0 2.93 2.94Zm16.14-11.74a4.4 4.4 0 1 1-3.11 1.3 4.4 4.4 0 0 1 3.11-1.3Zm-11.73 0a4.4 4.4 0 1 1-3.12 1.3 4.4 4.4 0 0 1 3.12-1.3"/></g></svg>