<svg xmlns="http://www.w3.org/2000/svg" width="62.8" height="60.44" viewBox="0 0 62.8 60.44"><g fill="#fff"><path d="M47.96 13.18a1.7 1.7 0 0 0-2.14.15l-6.54 6.64-2.95-2.94a1.6 1.6 0 0 0-2.14-.15 1.56 1.56 0 0 0-.1 2.3l4.34 4.34a1.2 1.2 0 0 0 1.65 0l8.03-8.04a1.56 1.56 0 0 0-.15-2.3"/><path d="M60.69 16.33a1 1 0 0 0-.7-.9 9.5 9.5 0 0 1-5.34-4.74 11 11 0 0 1-1.3-4.2A5 5 0 0 1 53.4 5l.15-1c0-.05.05-.15.05-.2v-.3a1.2 1.2 0 0 0-.6-.85c-.45-.25-.85-.5-1.3-.8l-.2-.1c-.65-.4-1.4-.84-2.1-1.24a1.2 1.2 0 0 0-1.3-.1q-.14.09-.35.25l-.1.1a8 8 0 0 1-1.35.94 3 3 0 0 1-.6.25 13 13 0 0 1-5.09.85A9.3 9.3 0 0 1 34.92.35a1.16 1.16 0 0 0-1.5-.15q-1.81 1.07-3.7 2.04a1 1 0 0 0-.54.6.5.5 0 0 0-.05.25v.5a6 6 0 0 1 .15 1.35V5a9 9 0 0 1-.05 1.6 10 10 0 0 1-.35 1.65 12 12 0 0 1-4.04 5.39 2 2 0 0 1-.55.35c-.5.25-1.05.45-1.55.65l-.15.05-.4.15a1.3 1.3 0 0 0-.55.6.5.5 0 0 0-.05.25v2.84c0 .5-.05 1.05-.05 1.55v.35a1.1 1.1 0 0 0 .8.95 9 9 0 0 1 5.1 4.44 9.3 9.3 0 0 1 1.34 5.99 8 8 0 0 1-.2 1.04v.1a1 1 0 0 0 .55 1.05c1.4.85 2.6 1.6 3.8 2.3a1 1 0 0 0 .6.2 2 2 0 0 0 .5-.1 1 1 0 0 0 .3-.25 6 6 0 0 1 1.44-1.05 11 11 0 0 1 6.04-1.1 8.4 8.4 0 0 1 5.39 2.3 1.2 1.2 0 0 0 .85.45h.05a1.4 1.4 0 0 0 .8-.25c.65-.35 1.3-.75 1.74-.94l1.75-.95a2 2 0 0 0 .7-.65.5.5 0 0 0 .05-.25 1 1 0 0 0-.05-.6l-.15-.75a11 11 0 0 1-.05-1.3q.09-.76.25-1.6a15 15 0 0 1 .8-2.2 11 11 0 0 1 4.14-4.6 8 8 0 0 1 1.65-.64 1 1 0 0 0 .75-.55c.05-.05.05-.15.1-.25v-.3a7 7 0 0 1 .05-1c0-1.15.05-2.3.05-3.4v-.2Zm-8.19 3.54a13 13 0 0 1-.75 2.85 11.4 11.4 0 0 1-11.38 7.09A11.5 11.5 0 0 1 29.7 16.78a7 7 0 0 1 .3-1.45 11 11 0 0 1 .6-1.64l.2-.5a.1.1 0 0 1 .05-.05 11.2 11.2 0 0 1 4.74-4.9 12 12 0 0 1 6.24-1.44 10 10 0 0 1 2.65.5 11.46 11.46 0 0 1 8.03 12.58ZM61.29 43.78a5 5 0 0 0-2.25.3c-4.24 1.55-8.28 3.34-12.52 4.94a1.5 1.5 0 0 0-.6.35 5.2 5.2 0 0 1-4.2 1.85q-3.98.06-7.88.2-2.71.09-5.34.1a1.2 1.2 0 0 1-1.05-1c-.05-.55.35-.7.8-.75.2 0 .35-.05.55-.05l6.69-.15c2.34-.05 4.69-.05 6.98-.2a2.8 2.8 0 0 0 2.75-2.85 2.82 2.82 0 0 0-3.05-2.9 51 51 0 0 1-8.63-.74c-3.2-.5-4.74-2.15-7.84-3.15-4.79-1.54-9.68-1-14.62-.9a7 7 0 0 0-.05-1.04c-.05-1.1-.55-1.55-1.65-1.55-2.94.1-5.84.15-8.68.25-.2 0-.35.05-.7.05.15 1.55.25 3.04.5 4.54a38 38 0 0 0 5.74 15.37 1.1 1.1 0 0 0 .75.4 29 29 0 0 0 2.94-.05 1.42 1.42 0 0 0 1.5-1.6v-.85l6.64 1.95c4.14 1.2 8.24 2.5 12.38 3.55 3.44.84 6.94.94 10.23-.85 6.94-3.85 13.93-7.64 20.86-11.48a3 3 0 0 0 .9-.85 1.8 1.8 0 0 0-1.14-2.9Z"/></g></svg>