<svg xmlns="http://www.w3.org/2000/svg" width="61.99" height="61.99" viewBox="0 0 61.99 61.99"><path fill="#fff" fill-rule="evenodd" d="M18.15 46.29h16.66a1.3 1.3 0 1 1 0 2.58H18.15a1.3 1.3 0 1 1 0-2.58m1.5-7.04h13.66v6H19.65ZM2.85 0h47.26a2.86 2.86 0 0 1 2.85 2.85V28.6h-3.3V2.4H3.3v29.73h34.02a5 5 0 0 0-.14 1.16v4.5H2.85A2.86 2.86 0 0 1 0 34.96V2.85A2.86 2.86 0 0 1 2.85 0M0 49.25h61.99v2.88H0Zm1.77 3.74h58.44v9H1.77Zm40.14-21.5h10.96a1.8 1.8 0 0 1 1.8 1.8v.69h1.95a3.4 3.4 0 0 1 3.4 3.4v3.35a3.4 3.4 0 0 1-3.4 3.4h-1.95v2.67a1.8 1.8 0 0 1-1.8 1.8H41.91a1.8 1.8 0 0 1-1.8-1.8V33.3a1.8 1.8 0 0 1 1.8-1.8m12.76 3.95v7.24h1.95a1.96 1.96 0 0 0 1.95-1.95V37.4a1.96 1.96 0 0 0-1.95-1.95zm-1.8-2.49H41.91a.35.35 0 0 0-.35.35v13.5a.35.35 0 0 0 .35.35h10.96a.35.35 0 0 0 .35-.34V33.3a.35.35 0 0 0-.35-.35Zm-10.62 4.09c4.05 2.19 5.19-1.3 10.27 0v9.13a.3.3 0 0 1-.29.3h-9.69a.3.3 0 0 1-.29-.3Zm1.1-11.5c-1.17.56-2.05 1.79-1.34 2.84a3 3 0 0 1 .4 2.22s1.2-1.34.55-2.4a2.24 2.24 0 0 1 .38-2.66Zm2.9 0c-1.18.56-2.06 1.79-1.35 2.84a3 3 0 0 1 .4 2.22s1.2-1.34.56-2.4a2.24 2.24 0 0 1 .38-2.66Zm-12.5-8.5-2.06.03-.37 2a4 4 0 0 0-1.42.86l-1.93-.63-.5.9-.5.9 1.54 1.32a4 4 0 0 0 .02 1.66l-1.5 1.36.53.89.54.88 1.9-.68a4 4 0 0 0 1.46.8l.42 1.99 1.04-.02 1.03-.02.36-2a4 4 0 0 0 1.43-.85l1.93.62 1-1.8-1.55-1.32a4 4 0 0 0 .07-.83 4 4 0 0 0-.1-.83l1.5-1.36-.53-.88-.53-.9-1.9.7a4 4 0 0 0-1.46-.81zm-.97 4.03a2.12 2.12 0 1 0 2.15 2.08 2.1 2.1 0 0 0-2.15-2.08M17.25 7.64a7 7 0 0 0-2.02.84l-2.3-1.32-.55.53-.53.54 1.32 2.31a7 7 0 0 0-.84 2.02l-2.57.7v1.52l2.57.7a7 7 0 0 0 .84 2.02l-1.32 2.31.53.54.54.54 2.31-1.32a7 7 0 0 0 2.02.83l.7 2.57h1.52l.7-2.57a7 7 0 0 0 2.02-.83l2.32 1.32.53-.54.54-.53-1.32-2.32a7 7 0 0 0 .84-2.02l2.57-.7v-1.52l-2.57-.7a7 7 0 0 0-.84-2.02l1.32-2.3-1.07-1.08-2.31 1.32a7 7 0 0 0-2.02-.84l-.7-2.57h-1.52Zm1.46 2.1a4.29 4.29 0 1 0 4.3 4.28 4.3 4.3 0 0 0-4.3-4.28Z"/></svg>